<svg width="28" height="28" viewBox="0 0 28 28" fill="none" xmlns="http://www.w3.org/2000/svg">
<g id="MO/icon/back">
<path id="Vector" d="M10.4557 13.997L18.171 21.7125C18.3185 21.8599 18.3913 22.0361 18.3895 22.2413C18.3875 22.4465 18.3127 22.6227 18.1652 22.77C18.0179 22.9175 17.8417 22.9913 17.6365 22.9913C17.4313 22.9913 17.2551 22.9175 17.1077 22.77L9.46525 15.1335C9.30375 14.972 9.18583 14.792 9.1115 14.5933C9.03717 14.3945 9 14.1957 9 13.997C9 13.7984 9.03717 13.5996 9.1115 13.4008C9.18583 13.2021 9.30375 13.022 9.46525 12.8605L17.1077 5.21829C17.2551 5.07079 17.4323 4.99804 17.6395 5.00004C17.8465 5.00187 18.0237 5.07654 18.171 5.22404C18.3185 5.37137 18.3923 5.54762 18.3923 5.75279C18.3923 5.95796 18.3185 6.13421 18.171 6.28154L10.4557 13.997Z" fill="#1B1B1B"/>
</g>
</svg>
