<svg width="166" height="144" viewBox="0 0 166 144" fill="none" xmlns="http://www.w3.org/2000/svg">
  <path
    d="M140.76 119.004C138.805 121.829 137.633 124.403 137.242 126.724C136.487 130.863 137.154 134.078 139.244 136.373C141.334 138.641 143.963 139.184 147.131 138.005C150.286 136.784 153.547 134.582 156.919 131.399C160.289 128.215 162.796 125.031 164.442 121.848C166.059 118.664 165.736 115.787 163.471 113.213C161.219 110.599 158.133 109.538 154.209 110.029C153.589 110.108 152.976 110.221 152.368 110.367C148.7 108.007 145.277 104.969 142.095 101.254C138.899 97.5537 135.691 93.614 132.469 89.4356C125.58 89.4224 121.765 92.4332 121.023 98.4694C123.585 102.131 126.693 105.877 130.347 109.711C133.986 113.585 137.459 116.682 140.762 119.003L140.76 119.004Z"
    fill="#E1FF01" />
  <path
    d="M144.036 139.177C142.037 139.177 140.285 138.367 138.797 136.754C136.592 134.331 135.871 130.926 136.656 126.627C137.035 124.368 138.146 121.851 139.956 119.145C136.767 116.848 133.387 113.806 129.902 110.098C126.25 106.265 123.094 102.46 120.528 98.7933C120.35 98.5369 120.415 98.1867 120.674 98.0109C120.936 97.8336 121.292 97.8996 121.47 98.1545C124.003 101.775 127.122 105.536 130.738 109.33C134.179 112.991 137.506 115.986 140.638 118.242L141.914 116.736C142.116 116.497 142.475 116.465 142.719 116.664C142.962 116.864 142.995 117.218 142.792 117.457L141.193 119.346C139.303 122.081 138.155 124.595 137.781 126.819C137.061 130.766 137.689 133.853 139.646 136.001C141.576 138.097 143.954 138.582 146.904 137.482C149.967 136.297 153.198 134.114 156.498 130.997C159.807 127.872 162.3 124.709 163.907 121.599C165.423 118.615 165.132 115.993 163.013 113.586C160.87 111.102 158.005 110.124 154.256 110.593C153.66 110.669 153.061 110.779 152.479 110.92C152.323 110.955 152.162 110.929 152.029 110.844C148.333 108.464 144.835 105.361 141.632 101.624C138.449 97.9362 135.202 93.9512 131.987 89.783C131.797 89.5354 131.846 89.1823 132.097 88.9947C132.349 88.8057 132.708 88.8556 132.899 89.1032C136.1 93.2552 139.333 97.2227 142.505 100.897C145.579 104.484 148.923 107.468 152.451 109.77C152.996 109.647 153.553 109.549 154.108 109.477C158.217 108.962 161.506 110.099 163.88 112.854C166.297 115.599 166.65 118.713 164.927 122.104C163.259 125.332 160.69 128.596 157.289 131.809C153.88 135.028 150.524 137.29 147.315 138.532C146.158 138.963 145.063 139.179 144.033 139.179L144.036 139.177Z"
    fill="black" />
  <path
    d="M77.9421 108.305C76.3532 113.344 75.3629 117.85 74.9713 121.825C71.5076 121.572 68.6544 121.859 66.4163 122.687C62.3956 124.112 59.8983 126.289 58.923 129.218C57.9714 132.132 58.8068 134.645 61.4307 136.755C64.0828 138.832 67.6522 140.511 72.139 141.792C76.6272 143.072 80.6821 143.617 84.3081 143.427C87.9193 143.213 90.2914 141.498 91.4232 138.281C92.5981 135.056 91.9876 131.895 89.5945 128.798C89.2148 128.308 88.8083 127.842 88.3764 127.398C88.6206 123.093 89.5826 118.656 91.2609 114.088C92.9212 109.516 94.7841 104.811 96.8511 99.9763C93.4171 94.0999 88.8589 92.3549 83.1764 94.7401C81.2346 98.753 79.4908 103.274 77.9421 108.305Z"
    fill="#E1FF01" />
  <path
    d="M82.8842 143.996C79.5739 143.996 75.9106 143.427 71.9659 142.302C67.4271 141.009 63.7579 139.28 61.0596 137.166C58.2436 134.901 57.3382 132.162 58.3643 129.018C59.3932 125.927 62.032 123.611 66.2075 122.129C68.3861 121.324 71.1544 121.01 74.4439 121.199C74.8727 117.334 75.86 112.933 77.3804 108.11C78.9276 103.08 80.6997 98.4901 82.643 94.4699C82.78 94.19 83.1195 94.0714 83.4054 94.2032C83.6913 94.338 83.812 94.6735 83.6764 94.9533C81.7555 98.9223 80.0057 103.46 78.4734 108.44C76.9709 113.203 75.9985 117.536 75.5786 121.332L77.5427 121.666C77.854 121.719 78.0624 122.011 78.0088 122.317C77.9552 122.623 77.6604 122.828 77.3477 122.775L74.8846 122.358C71.5326 122.115 68.745 122.395 66.6006 123.187C62.7661 124.547 60.3627 126.626 59.4498 129.367C58.5712 132.06 59.3307 134.326 61.7758 136.291C64.3505 138.308 67.8872 139.97 72.2816 141.224C76.6865 142.479 80.719 143.024 84.2602 142.837C87.645 142.638 89.8072 141.077 90.866 138.07C91.9828 135.002 91.411 132.073 89.1222 129.11C88.7573 128.642 88.3612 128.186 87.9458 127.76C87.8356 127.647 87.779 127.494 87.7879 127.339C88.0336 123 89.0165 118.468 90.7051 113.869C92.3625 109.302 94.2478 104.545 96.3057 99.731C96.4293 99.4438 96.7629 99.312 97.0548 99.4307C97.3451 99.5508 97.4821 99.8819 97.36 100.168C95.3095 104.963 93.4332 109.701 91.7818 114.25C90.1616 118.661 89.2071 123.004 88.945 127.162C89.3277 127.566 89.6925 127.991 90.032 128.429C92.5412 131.674 93.1845 135.043 91.9456 138.445C90.7379 141.877 88.1736 143.735 84.3257 143.962C83.8522 143.987 83.3712 144 82.8827 144L82.8842 143.996Z"
    fill="black" />
  <path
    d="M56.6621 23.0273V23.0522C56.193 27.2174 57.1386 31.1351 59.4989 34.8051C55.0911 34.6352 51.1613 35.7867 47.7095 38.2613C41.342 42.4954 38.1582 49.289 38.1582 58.6436C38.1582 67.9983 41.3509 74.7919 47.7363 79.026C51.1717 81.5005 55.0836 82.6624 59.4736 82.5085C57.1312 86.161 56.2035 90.0787 56.6889 94.2615V94.2864C57.1922 101.798 61.5554 107.9 69.7798 112.594C78.0385 117.272 85.6301 117.955 92.5531 114.642H92.5277C96.4486 112.953 99.4418 110.196 101.507 106.372C103.555 110.196 106.539 112.953 110.46 114.642H110.435C117.357 117.971 124.931 117.297 133.156 112.619H133.182C141.389 107.907 145.761 101.788 146.299 94.26C146.75 90.0772 145.813 86.1595 143.487 82.5071C147.859 82.6609 151.773 81.5005 155.224 79.0245C161.61 74.7904 164.803 68.0144 164.803 58.6935V58.6686C164.82 49.2964 161.637 42.4939 155.251 38.2613H155.277C151.823 35.7516 147.902 34.5824 143.512 34.7539C145.855 31.0838 146.792 27.1661 146.324 23.0009C145.803 15.4894 141.405 9.39605 133.129 4.71801C124.901 0.0253209 117.346 -0.674993 110.458 2.62V2.59509C106.537 4.28434 103.544 7.05044 101.479 10.8919C99.4313 7.05044 96.4471 4.2946 92.5263 2.62146C85.6197 -0.692574 78.0385 0.00773996 69.7798 4.71948C61.5732 9.39751 57.2012 15.4996 56.6621 23.0273Z"
    fill="#E1FF01" />
  <path
    d="M119.382 117.256C116.192 117.256 113.116 116.548 110.172 115.133C110.145 115.12 110.119 115.105 110.096 115.089C106.441 113.485 103.551 110.937 101.494 107.509C99.4231 110.938 96.5252 113.486 92.8694 115.091C92.8456 115.107 92.8203 115.121 92.7935 115.134C85.7216 118.517 77.8799 117.821 69.4857 113.067C61.1227 108.294 56.6241 101.982 56.1088 94.3082C56.1088 94.3024 56.1088 94.2921 56.1088 94.2804C55.6561 90.329 56.4439 86.5608 58.4512 83.0666C54.3591 83.0182 50.6437 81.8081 47.39 79.4639C40.8855 75.1521 37.5781 68.1373 37.5781 58.6274C37.5781 49.1175 40.8765 42.1041 47.3811 37.7791C50.6348 35.4467 54.3665 34.2453 58.4706 34.2102C56.4483 30.7013 55.6442 26.936 56.082 23.0007C56.082 22.9875 56.082 22.9758 56.082 22.97C56.6315 15.2797 61.1391 8.96955 69.4827 4.21533C77.8784 -0.572593 85.7112 -1.28609 92.7667 2.0968C96.4597 3.67178 99.3903 6.23569 101.471 9.71675C103.566 6.23422 106.504 3.66006 110.218 2.06018C110.262 2.04113 110.31 2.02795 110.356 2.02062C117.352 -1.25972 125.105 -0.521315 133.403 4.21533C141.811 8.96662 146.346 15.265 146.882 22.9348C147.322 26.8759 146.527 30.6456 144.515 34.1589C148.609 34.197 152.335 35.4159 155.603 37.7923C155.633 37.8143 155.66 37.8377 155.684 37.8626C162.123 42.1934 165.378 49.1878 165.362 58.6537C165.362 68.1534 162.054 75.1507 155.532 79.4756C152.28 81.8081 148.563 83.0168 144.487 83.0651C146.485 86.5681 147.282 90.3437 146.855 94.3038C146.308 101.974 141.799 108.301 133.457 113.089C133.421 113.11 133.383 113.127 133.342 113.141C128.494 115.883 123.827 117.256 119.382 117.256ZM110.796 114.179C117.473 117.339 124.895 116.644 132.855 112.116C132.891 112.096 132.927 112.08 132.966 112.068C140.906 107.484 145.196 101.474 145.714 94.2042C146.15 90.1503 145.233 86.3161 142.989 82.7897C142.877 82.6139 142.873 82.3897 142.979 82.2095C143.084 82.0293 143.272 81.9018 143.495 81.9282C147.713 82.0688 151.544 80.9422 154.875 78.5526C161.08 74.4386 164.218 67.7549 164.218 58.6772C164.234 49.5218 161.106 42.8132 154.918 38.7109C154.874 38.6816 154.835 38.6465 154.802 38.6084C151.502 36.2496 147.72 35.1332 143.522 35.2987C143.312 35.3192 143.111 35.1991 143.005 35.0189C142.898 34.8387 142.903 34.6145 143.016 34.4372C145.278 30.8946 146.194 27.062 145.742 23.0462C145.742 23.0374 145.741 23.03 145.739 23.0227C145.235 15.7456 140.892 9.74605 132.83 5.18961C124.817 0.615596 117.37 -0.0847177 110.697 3.10772C110.641 3.13409 110.58 3.15167 110.519 3.16046C106.814 4.79697 103.938 7.47955 101.972 11.135C101.874 11.3196 101.679 11.4338 101.468 11.4338C101.255 11.4338 101.061 11.3166 100.963 11.132C98.9883 7.42534 96.0696 4.72957 92.2887 3.11651C85.5742 -0.102298 78.1018 0.59655 70.056 5.18668C62.0624 9.74312 57.7439 15.7515 57.2227 23.0476C56.7685 27.1118 57.6948 30.943 59.9716 34.4856C60.0863 34.6614 60.0908 34.8856 59.9835 35.0672C59.8778 35.2474 59.6678 35.3529 59.4653 35.3485C55.2109 35.183 51.366 36.3096 48.0348 38.6977C41.8475 42.8117 38.7188 49.513 38.7188 58.6244C38.7188 67.7359 41.8564 74.4372 48.0437 78.5394C51.3749 80.9393 55.1915 82.0659 59.4415 81.9267C59.6604 81.9091 59.8525 82.0278 59.9582 82.208C60.064 82.3882 60.0595 82.6124 59.9463 82.7882C57.6858 86.3132 56.7775 90.1444 57.245 94.1778C57.248 94.1983 57.2495 94.2203 57.2495 94.2423C57.7364 101.508 62.0445 107.516 70.056 112.089C78.0526 116.617 85.4923 117.32 92.1725 114.175C92.2068 114.148 92.2455 114.127 92.2872 114.109C96.0696 112.478 98.9972 109.781 100.991 106.09C101.089 105.906 101.284 105.792 101.496 105.792C101.707 105.792 101.902 105.907 102.001 106.092C103.977 109.783 106.896 112.48 110.676 114.109C110.72 114.127 110.758 114.15 110.794 114.178L110.796 114.179Z"
    fill="black" />
  <path
    d="M29.0857 18.4981C29.0857 17.773 28.8207 17.1514 28.289 16.6304C28.1943 16.5376 28.0902 16.4448 27.9766 16.3521C27.5222 16.0181 26.9905 15.8511 26.383 15.8511H24.6191C23.917 15.8511 23.3111 16.0738 22.7983 16.5206C22.7605 16.5577 22.7321 16.5948 22.7131 16.6319C22.183 17.153 21.9164 17.7745 21.9164 18.4997V20.2282C21.9164 20.8606 22.1152 21.4172 22.5143 21.9012C22.5711 21.9754 22.6374 22.0403 22.7131 22.096C23.2243 22.617 23.8602 22.8768 24.6191 22.8768H26.383C27.123 22.8768 27.7573 22.617 28.289 22.096C28.3268 22.0589 28.3647 22.0218 28.4026 21.9847C28.857 21.5023 29.0857 20.9163 29.0857 20.2282V18.4997M38.7843 10.5262C37.4195 10.452 36.0342 10.6839 34.6316 11.2235C33.0775 11.8188 31.6638 12.6444 30.3937 13.7035C29.4455 14.5029 28.6392 15.3857 27.9766 16.3521C28.0902 16.4448 28.1943 16.5376 28.289 16.6304C28.8207 17.1514 29.0857 17.773 29.0857 18.4981V20.2267C29.0857 20.9147 28.8585 21.4992 28.4026 21.9831C29.9188 22.5784 31.4839 23.0051 33.0948 23.2649C35.3132 23.6359 37.5221 23.6916 39.7215 23.4319C41.0673 23.2649 42.0534 22.9479 42.6798 22.4841C43.3819 22.0017 43.912 21.2951 44.2733 20.3659C44.5762 19.5479 44.7277 18.628 44.7277 17.606C44.7277 16.4727 44.5668 15.4414 44.2449 14.5121C43.8663 13.4345 43.2967 12.5609 42.5378 11.8914C41.5517 11.055 40.3005 10.6004 38.7827 10.5262M16.0297 11.2235C14.6271 10.6854 13.2418 10.452 11.877 10.5262C10.3608 10.6004 9.10806 11.055 8.12353 11.8914C7.36463 12.5609 6.79663 13.4345 6.41639 14.5121C6.09453 15.4414 5.93359 16.4727 5.93359 17.606C5.93359 18.628 6.08506 19.5479 6.38799 20.3659C6.74772 21.2951 7.27943 22.0017 7.98153 22.4841C8.60791 22.9479 9.59243 23.2649 10.9398 23.4319C13.1393 23.6916 15.3481 23.6359 17.5665 23.2649C19.2736 22.9866 20.9224 22.5305 22.5159 21.8996C22.1183 21.4172 21.9179 20.8591 21.9179 20.2267V18.4981C21.9179 17.773 22.183 17.1514 22.7147 16.6304C22.7337 16.5933 22.7621 16.5562 22.7999 16.519C22.1167 15.4785 21.2742 14.54 20.2692 13.7035C18.9991 12.6444 17.587 11.8172 16.0313 11.2235H16.0297Z"
    fill="#FF6000" />
  <path
    d="M13.6487 24.1898C12.7147 24.1898 11.7838 24.1357 10.8577 24.0259C9.38404 23.8419 8.31905 23.4941 7.59643 22.9575C6.81228 22.4179 6.20011 21.6093 5.7962 20.5687C5.46645 19.6797 5.30078 18.6809 5.30078 17.5909C5.30078 16.3957 5.47434 15.2871 5.81829 14.3007C6.23166 13.1256 6.86435 12.1577 7.69899 11.4233C8.79711 10.4925 10.1871 9.98229 11.839 9.90035C13.2922 9.82613 14.7705 10.0704 16.2505 10.6394C17.8614 11.2548 19.3476 12.1253 20.6651 13.223C21.5392 13.9497 22.3044 14.7614 22.9497 15.6412C23.4467 15.3629 24.0036 15.2237 24.6126 15.2237H26.3766C26.8894 15.2237 27.3627 15.3242 27.7918 15.5221C28.4151 14.6949 29.1503 13.925 29.9786 13.2261C31.2992 12.1253 32.7855 11.2563 34.3979 10.6394C35.8763 10.0704 37.3626 9.81995 38.811 9.9019C40.4597 9.98229 41.8497 10.4925 42.94 11.4156C43.7841 12.1593 44.4168 13.1272 44.8286 14.2991C45.1725 15.2887 45.3461 16.3973 45.3461 17.5924C45.3461 18.6794 45.1804 19.6782 44.8538 20.561C44.4467 21.6109 43.8346 22.4179 43.0331 22.9715C42.3294 23.4941 41.2644 23.8419 39.7939 24.0259C37.5409 24.2919 35.2499 24.2347 32.9827 23.8543C31.4696 23.61 29.977 23.2158 28.5413 22.6823C27.9275 23.208 27.2002 23.474 26.3766 23.474H24.6126C23.7291 23.474 22.9702 23.1817 22.3564 22.6035C20.8465 23.1725 19.2687 23.593 17.6626 23.8559C16.3294 24.0785 14.9867 24.1914 13.6487 24.1914V24.1898ZM12.3613 11.1125C12.2082 11.1125 12.0568 11.1172 11.9053 11.1249C10.5342 11.1929 9.39824 11.6027 8.52574 12.3433C7.85992 12.9308 7.34399 13.7255 7.00161 14.6996C6.70342 15.5577 6.55195 16.5318 6.55195 17.5924C6.55195 18.5387 6.69237 19.3968 6.96848 20.142C7.2793 20.9414 7.73843 21.5583 8.33325 21.968C8.88547 22.3777 9.78006 22.656 11.0107 22.8091C13.1344 23.0596 15.3054 23.0055 17.4543 22.6452C18.8648 22.4148 20.2501 22.0561 21.5818 21.5768C21.3845 21.1563 21.2851 20.7002 21.2851 20.2116V18.483C21.2851 17.7177 21.5281 17.0389 22.0093 16.4591C21.4098 15.6195 20.6872 14.8465 19.8557 14.1553C18.644 13.1442 17.2776 12.3448 15.7961 11.7774C14.6396 11.3321 13.4862 11.1094 12.3613 11.1094V11.1125ZM29.3633 21.6727C30.605 22.1087 31.8893 22.4349 33.191 22.6468C35.3415 23.007 37.5109 23.0627 39.6424 22.8107C40.8684 22.6576 41.763 22.3793 42.2978 21.9835C42.91 21.5614 43.3707 20.9429 43.6831 20.1358C43.9561 19.3968 44.0965 18.5387 44.0965 17.594C44.0965 16.5333 43.945 15.5577 43.6468 14.698C43.306 13.7271 42.7885 12.9323 42.1132 12.3355C41.236 11.5918 40.1315 11.1945 38.7463 11.1264C37.473 11.0553 36.1666 11.278 34.8539 11.782C33.3708 12.3494 32.0045 13.1488 30.7928 14.16C30.0354 14.7985 29.3649 15.502 28.7953 16.2566C29.398 16.8796 29.7041 17.6295 29.7041 18.4861V20.2147C29.7041 20.7481 29.5905 21.2367 29.3633 21.6742V21.6727ZM23.0096 21.5181C23.0301 21.5459 23.0554 21.5691 23.0822 21.5908C23.109 21.6109 23.1343 21.6325 23.1579 21.6557C23.5508 22.0546 24.0273 22.2494 24.6142 22.2494H26.3782C26.9493 22.2494 27.429 22.053 27.8423 21.648L27.9465 21.5459C28.2888 21.1779 28.4561 20.7435 28.4561 20.2147V18.4861C28.4561 17.9248 28.2557 17.4564 27.8423 17.0513C27.7634 16.974 27.6782 16.8982 27.5836 16.8209C27.2396 16.572 26.8452 16.4498 26.3782 16.4498H24.6142C24.0778 16.4498 23.6265 16.6106 23.2368 16.9399C23.2084 16.9956 23.1974 17.0049 23.1501 17.0513C22.7367 17.4548 22.5363 17.9248 22.5363 18.4861V20.2147C22.5363 20.7048 22.6862 21.1254 22.9923 21.4995C22.9954 21.5042 23.0002 21.5088 23.0033 21.5134C23.0049 21.5165 23.0065 21.5181 23.0081 21.5196L23.0096 21.5181Z"
    fill="black" />
  <path d="M50.2902 68.6078V32.2178H2.04688V68.6078H50.2902Z" fill="#F1F0EB" />
  <path d="M50.2906 32.2173H51.7011V21.2969H0.636719V32.2173H50.2906Z" fill="#F1F0EB" />
  <path
    d="M50.2787 69.203H2.0369C1.69137 69.203 1.4121 68.9293 1.4121 68.5907V32.8129H0.624795C0.279265 32.8129 0 32.5393 0 32.2007V21.2802C0 20.9416 0.279265 20.668 0.624795 20.668H51.6892C52.0347 20.668 52.314 20.9416 52.314 21.2802V32.2007C52.314 32.5393 52.0347 32.8129 51.6892 32.8129H50.9035V68.5907C50.9035 68.9293 50.6242 69.203 50.2787 69.203ZM2.66169 67.9769H49.6539V32.8114H2.66169V67.9769ZM50.2787 31.5868H51.0644V21.891H1.25117V31.5868H50.2803H50.2787Z"
    fill="black" />
  <path
    d="M7.17992 62.4737C7.17992 63.1184 7.415 63.6719 7.88518 64.1327C8.35535 64.5934 8.92019 64.8238 9.57812 64.8238C10.2361 64.8238 10.8009 64.5934 11.2711 64.1327C11.7412 63.6719 11.9763 63.12 11.9763 62.4737C11.9763 61.8274 11.7412 61.2754 11.2711 60.8147C10.8009 60.3539 10.2376 60.1235 9.57812 60.1235C8.91862 60.1235 8.35535 60.3539 7.88518 60.8147C7.415 61.2754 7.17992 61.8289 7.17992 62.4737ZM15.3243 49.4814C14.8778 49.0207 14.3256 48.7903 13.6677 48.7903C13.0098 48.7903 12.4449 49.0207 11.9747 49.4814C11.5046 49.9422 11.2695 50.4941 11.2695 51.1404C11.2695 51.7867 11.5046 52.3387 11.9747 52.7994C12.4449 53.2602 13.0082 53.4906 13.6677 53.4906C14.3272 53.4906 14.8778 53.2602 15.3243 52.7994C15.7945 52.3387 16.0296 51.7867 16.0296 51.1404C16.0296 50.4941 15.7945 49.9422 15.3243 49.4814ZM3.72461 43.8844C3.72461 44.5291 3.9597 45.0826 4.42987 45.5434C4.90005 46.0041 5.46331 46.2345 6.12281 46.2345C6.78232 46.2345 7.34558 46.0041 7.81576 45.5434C8.28593 45.0826 8.52102 44.5307 8.52102 43.8844C8.52102 43.2381 8.28593 42.6861 7.81576 42.2254C7.34558 41.7646 6.78232 41.5342 6.12281 41.5342C5.46331 41.5342 4.90005 41.7646 4.42987 42.2254C3.9597 42.6861 3.72461 43.2381 3.72461 43.8844ZM12.751 37.0782C12.751 37.723 12.9861 38.2765 13.4563 38.7373C13.9264 39.198 14.4897 39.4284 15.1492 39.4284C15.8087 39.4284 16.3594 39.198 16.8059 38.7373C17.276 38.2765 17.5111 37.7245 17.5111 37.0782C17.5111 36.432 17.276 35.88 16.8059 35.4192C16.3594 34.9585 15.8071 34.7281 15.1492 34.7281C14.4913 34.7281 13.9264 34.9585 13.4563 35.4192C12.9861 35.88 12.751 36.4335 12.751 37.0782ZM35.0701 65.5149C35.728 65.5149 36.2929 65.2846 36.763 64.8238C37.2332 64.3631 37.4683 63.8111 37.4683 63.1648C37.4683 62.5185 37.2332 61.9665 36.763 61.5058C36.2929 61.045 35.7296 60.8147 35.0701 60.8147C34.4106 60.8147 33.8473 61.045 33.3771 61.5058C32.907 61.9665 32.6719 62.5201 32.6719 63.1648C32.6719 63.8095 32.907 64.3631 33.3771 64.8238C33.8473 65.2846 34.4106 65.5149 35.0701 65.5149ZM39.9359 54.3193C39.4658 54.7801 39.2307 55.332 39.2307 55.9783C39.2307 56.6246 39.4658 57.1766 39.9359 57.6373C40.4061 58.0981 40.9694 58.3285 41.6289 58.3285C42.2884 58.3285 42.839 58.0981 43.2855 57.6373C43.7557 57.1766 43.9908 56.6246 43.9908 55.9783C43.9908 55.332 43.7557 54.7801 43.2855 54.3193C42.839 53.8586 42.2868 53.6282 41.6289 53.6282C40.9709 53.6282 40.4061 53.8586 39.9359 54.3193ZM33.6249 48.3419C34.095 48.8027 34.6599 49.033 35.3178 49.033C35.9757 49.033 36.528 48.8027 36.9745 48.3419C37.4446 47.8812 37.6797 47.3292 37.6797 46.6829C37.6797 46.0366 37.4446 45.4846 36.9745 45.0239C36.528 44.5631 35.9757 44.3328 35.3178 44.3328C34.6599 44.3328 34.095 44.5631 33.6249 45.0239C33.1547 45.4846 32.9196 46.0366 32.9196 46.6829C32.9196 47.3292 33.1547 47.8812 33.6249 48.3419ZM26.3261 57.1178C26.3261 56.4731 26.091 55.9196 25.6209 55.4588C25.1743 54.9981 24.6221 54.7677 23.9642 54.7677C23.3063 54.7677 22.7414 54.9981 22.2713 55.4588C21.8011 55.9196 21.566 56.4731 21.566 57.1178C21.566 57.7626 21.8011 58.3161 22.2713 58.7768C22.7414 59.2376 23.3047 59.468 23.9642 59.468C24.6237 59.468 25.1743 59.2376 25.6209 58.7768C26.091 58.3161 26.3261 57.7641 26.3261 57.1178ZM25.6209 44.4364C25.6209 43.7916 25.3858 43.2381 24.9156 42.7773C24.4691 42.3166 23.9169 42.0862 23.2589 42.0862C22.601 42.0862 22.0362 42.3166 21.566 42.7773C21.0958 43.2381 20.8607 43.7901 20.8607 44.4364C20.8607 45.0826 21.0958 45.6346 21.566 46.0954C22.0362 46.5561 22.5994 46.7865 23.2589 46.7865C23.9184 46.7865 24.4691 46.5561 24.9156 46.0954C25.3858 45.6346 25.6209 45.0826 25.6209 44.4364ZM45.2246 36.7659C44.7544 36.3052 44.1912 36.0748 43.5317 36.0748C42.8721 36.0748 42.3089 36.3052 41.8387 36.7659C41.3685 37.2267 41.1334 37.7787 41.1334 38.4249C41.1334 39.0712 41.3685 39.6232 41.8387 40.084C42.3089 40.5447 42.8721 40.7751 43.5317 40.7751C44.1912 40.7751 44.7544 40.5447 45.2246 40.084C45.6948 39.6232 45.9299 39.0712 45.9299 38.4249C45.9299 37.7787 45.6948 37.2267 45.2246 36.7659ZM33.5886 38.7357C34.0587 38.275 34.2938 37.723 34.2938 37.0767C34.2938 36.4304 34.0587 35.8784 33.5886 35.4177C33.1421 34.9569 32.5898 34.7266 31.9319 34.7266C31.274 34.7266 30.7091 34.9569 30.239 35.4177C29.7688 35.8784 29.5337 36.432 29.5337 37.0767C29.5337 37.7214 29.7688 38.275 30.239 38.7357C30.7091 39.1965 31.2724 39.4268 31.9319 39.4268C32.5914 39.4268 33.1421 39.1965 33.5886 38.7357Z"
    fill="#FF6000" />
  <path
    d="M87.5928 34.7558C88.8079 36.2604 89.414 38.0742 89.414 40.1986C89.414 42.323 88.8064 44.1294 87.5928 45.6194C86.3627 47.1241 84.8796 47.8771 83.1403 47.8771C81.4605 47.8771 80.0072 47.1241 78.7771 45.6194C77.5471 44.1294 76.9336 42.323 76.9336 40.1986C76.9336 38.0742 77.5486 36.2604 78.7771 34.7558C80.0072 33.2511 81.4605 32.498 83.1403 32.498C84.82 32.498 86.3642 33.2511 87.5928 34.7558Z"
    fill="white" />
  <path
    d="M84.1198 34.9652C85.1085 36.2779 85.6029 37.8631 85.6029 39.7209C85.6029 41.5786 85.1085 43.1565 84.1198 44.4546C83.1161 45.7819 81.9471 46.4456 80.6129 46.4456C80.3135 46.4456 80.0202 46.4163 79.7358 46.3577C79.3009 46.0178 78.8884 45.6135 78.4998 45.1417C77.2713 43.6517 76.6562 41.8453 76.6562 39.7223C76.6562 37.5994 77.2713 35.7856 78.4998 34.281C78.8899 33.8092 79.3009 33.4107 79.7358 33.0869C80.0202 33.0283 80.3135 32.999 80.6129 32.999C81.9471 32.999 83.1161 33.6554 84.1198 34.9681V34.9652Z"
    fill="black" />
  <path
    d="M83.3367 48.3441C81.4991 48.3441 79.8894 47.5149 78.5521 45.8784C77.2462 44.2946 76.582 42.3533 76.582 40.1059C76.582 37.8584 77.2447 35.9113 78.5521 34.3115C79.8894 32.6749 81.4991 31.8457 83.3367 31.8457C85.1743 31.8457 86.8972 32.6749 88.2345 34.3115C89.5419 35.9113 90.2046 37.8614 90.2046 40.1059C90.2046 42.3504 89.5419 44.2946 88.233 45.8798C86.8972 47.5149 85.2502 48.3441 83.3367 48.3441ZM83.3367 32.9709C81.8416 32.9709 80.5684 33.6404 79.4441 35.0176C78.305 36.4124 77.7257 38.1236 77.7257 40.1059C77.7257 42.0882 78.3035 43.7906 79.4412 45.1692C80.5684 46.5479 81.8416 47.2174 83.3352 47.2174C84.9063 47.2174 86.2167 46.5479 87.341 45.1707C88.4816 43.7891 89.0579 42.0852 89.0579 40.1044C89.0579 38.1236 88.4802 36.4095 87.341 35.0162C86.2152 33.639 84.9063 32.9694 83.3352 32.9694L83.3367 32.9709Z"
    fill="black" />
  <path
    d="M70.9051 32.5C72.6444 32.5 74.129 33.2531 75.3575 34.7577C76.5876 36.2624 77.2011 38.0761 77.2011 40.2005C77.2011 42.3249 76.5861 44.1314 75.3575 45.6214C74.1275 47.126 72.6444 47.8791 70.9051 47.8791C69.2402 47.8791 67.7943 47.126 66.5642 45.6214C65.3342 44.1314 64.7207 42.3249 64.7207 40.2005C64.7207 38.0761 65.3357 36.2624 66.5642 34.7577C67.7943 33.2531 69.2402 32.5 70.9051 32.5Z"
    fill="white" />
  <path
    d="M71.865 34.9432C72.8538 36.2559 73.3482 37.8412 73.3482 39.6989C73.3482 41.5566 72.8538 43.1419 71.865 44.4546C70.8762 45.7673 69.7147 46.4237 68.3804 46.4237C68.0811 46.4237 67.7878 46.3944 67.5033 46.3358C67.0685 45.9973 66.656 45.5915 66.2674 45.1197C65.0388 43.6297 64.4238 41.8233 64.4238 39.7004C64.4238 37.5774 65.0388 35.7637 66.2674 34.259C66.6575 33.7872 67.0685 33.3961 67.5033 33.0869C67.7878 33.0283 68.0811 32.999 68.3804 32.999C69.7147 32.999 70.8762 33.6481 71.865 34.9461V34.9432Z"
    fill="black" />
  <path
    d="M71.1492 48.3221C69.3131 48.3221 67.7034 47.5002 66.3661 45.8798C65.0572 44.2946 64.3945 42.3446 64.3945 40.0839C64.3945 37.8233 65.0572 35.8952 66.3661 34.31C67.7019 32.6749 69.3116 31.8457 71.1492 31.8457C72.9868 31.8457 74.7038 32.6764 76.0261 34.3144C77.3306 35.8952 77.9932 37.8379 77.9932 40.0839C77.9932 42.3299 77.3306 44.2946 76.0216 45.8798C74.7023 47.4987 73.0613 48.3221 71.1492 48.3221ZM71.1492 32.9709C69.6541 32.9709 68.3809 33.6404 67.2551 35.0176C66.1145 36.3992 65.5382 38.1031 65.5382 40.0839C65.5382 42.0647 66.116 43.7906 67.2537 45.1707C68.3794 46.5333 69.6526 47.1969 71.1492 47.1969C72.7188 47.1969 74.0217 46.5347 75.1311 45.1736C76.2718 43.7921 76.8496 42.0794 76.8496 40.0839C76.8496 38.0885 76.2718 36.3992 75.1341 35.0191C74.0203 33.639 72.7188 32.9709 71.1492 32.9709Z"
    fill="black" />
  <path
    d="M77.6231 56.2174C75.9508 56.2028 74.3798 55.8087 72.9487 55.0439C71.5132 54.2674 70.3725 53.1803 69.555 51.8104C69.2021 51.9349 68.8566 51.9628 68.5528 51.9452C68.2371 51.9262 67.9974 51.661 68.0167 51.3504C68.0346 51.0398 68.3116 50.8098 68.6213 50.8229C69.0591 50.8405 69.7069 50.7468 70.2459 49.5703C70.3755 49.2875 70.7135 49.1615 71.0024 49.289C71.2898 49.4165 71.4179 49.7505 71.2883 50.0333C71.0575 50.5358 70.7939 50.9138 70.5125 51.1951C71.2273 52.4096 72.2309 53.3722 73.4967 54.0579C74.758 54.7303 76.1488 55.079 77.6276 55.0922C79.0988 55.0922 80.4897 54.7509 81.7524 54.0784C83.0897 53.381 84.1365 52.3715 84.8692 51.0735C84.8841 51.0471 84.9019 51.0207 84.9198 50.9973C84.7203 50.757 84.5311 50.464 84.3629 50.1036C84.2303 49.8223 84.3554 49.4868 84.6428 49.3564C84.9317 49.226 85.2698 49.3491 85.4023 49.6318C85.9384 50.7746 86.61 50.8757 87.0716 50.8464C87.3798 50.8259 87.6568 51.0647 87.6762 51.3753C87.694 51.6859 87.4543 51.9511 87.1386 51.9701C86.7425 51.9936 86.2779 51.9408 85.8148 51.7152C84.9764 53.1612 83.7925 54.2894 82.293 55.0702C80.8649 55.8306 79.2924 56.2174 77.6231 56.2174Z"
    fill="black" />
  <path
    d="M31.3274 68.5499C31.9424 71.6486 33.5834 74.088 36.2504 75.8666C38.3069 77.2277 40.4736 77.9163 42.7475 77.9338C45.4607 79.541 49.2997 81.2962 54.2629 83.1964C57.2814 84.3509 61.0846 85.7999 65.6711 87.5463L73.6484 68.988C71.0439 68.1705 64.4664 66.0856 53.9189 62.735C53.1476 60.2766 51.6227 58.2958 49.3428 56.7896C46.6594 54.9993 43.7378 54.4147 40.5778 55.0359C37.412 55.6308 34.9147 57.2555 33.086 59.9118C31.2931 62.546 30.7064 65.4249 31.3274 68.5499Z"
    fill="#E1FF01" />
  <path
    d="M65.6696 88.1025C65.6011 88.1025 65.5311 88.0908 65.4626 88.0644C60.8761 86.318 57.0729 84.8676 54.0544 83.7146C49.1656 81.8407 45.3073 80.0841 42.5851 78.4871C40.2651 78.4388 38.0269 77.7121 35.9317 76.3276C33.1455 74.4684 31.4092 71.8869 30.7659 68.6505C30.1182 65.3892 30.7391 62.3418 32.611 59.5918C34.523 56.8184 37.1677 55.0984 40.4721 54.4772C43.769 53.8296 46.8619 54.4479 49.6644 56.3188C51.9547 57.8308 53.5406 59.8365 54.3746 62.2817C64.6823 65.5577 71.224 67.6308 73.8226 68.4454C74.1234 68.5406 74.2901 68.8571 74.1934 69.153C74.0966 69.449 73.7734 69.6131 73.4741 69.5178C70.8517 68.6944 64.2132 66.5906 53.7432 63.2634C53.566 63.2077 53.4275 63.07 53.3724 62.8942C52.6442 60.5734 51.1804 58.6747 49.0226 57.2506C46.4807 55.554 43.6752 54.9929 40.6895 55.5819C37.6889 56.1459 35.2914 57.7063 33.558 60.2218C31.8619 62.7125 31.3005 65.4771 31.8872 68.4366C32.4695 71.3697 34.045 73.7109 36.5705 75.3958C38.5213 76.6851 40.6016 77.3487 42.7504 77.3649C42.8532 77.3649 42.9529 77.3927 43.0408 77.4454C45.7153 79.0292 49.5602 80.7859 54.4684 82.6656C57.4853 83.8186 61.2886 85.269 65.8751 87.0154C66.1699 87.1282 66.3159 87.4535 66.2012 87.7436C66.1133 87.9663 65.8974 88.1025 65.6681 88.1025H65.6696Z"
    fill="black" />
</svg>