<svg width="20" height="20" viewBox="0 0 20 20" fill="none" xmlns="http://www.w3.org/2000/svg">
<path fill-rule="evenodd" clip-rule="evenodd" d="M9.99254 2.5C5.82761 2.5 2.48663 5.79179 2.49918 9.81602L2.49918 9.81701V9.81799C2.49914 11.2179 2.90829 12.5871 3.67614 13.7573C3.72 13.8172 3.76103 13.8791 3.7991 13.9429L3.80212 13.9479L3.80504 13.9531C3.86667 14.0608 3.93974 14.206 3.99009 14.3664C4.03618 14.5131 4.08926 14.7523 4.0199 15.0076L4.01954 15.009L3.374 17.344L5.60634 16.5384C5.82829 16.4471 6.06612 16.4004 6.30622 16.4012C6.30662 16.4012 6.30702 16.4012 6.30742 16.4012L6.30504 17.0262L6.30574 16.4012C6.3059 16.4012 6.30606 16.4012 6.30622 16.4012C6.53101 16.4015 6.75384 16.443 6.96366 16.5236L6.96412 16.5238L6.96457 16.524C7.09126 16.5729 7.59594 16.7604 8.09498 16.9001C8.58556 17.0374 9.49151 17.2039 10.1324 17.2039C14.2765 17.2039 17.4991 13.8765 17.4992 9.82405L18.1242 9.82383H17.4992C17.499 9.32111 17.4458 8.81982 17.3404 8.32826L17.3403 8.32761L17.3401 8.32695C16.6373 5.0133 13.622 2.5 9.99254 2.5ZM1.24918 9.81894C1.23493 5.07409 5.16562 1.25 9.99254 1.25C14.205 1.25 17.7355 4.16906 18.5627 8.06667C18.6865 8.64413 18.749 9.23304 18.7492 9.82361V9.82383C18.7492 14.5533 14.9804 18.4539 10.1324 18.4539C9.34358 18.4539 8.31984 18.2611 7.75808 18.1038C7.20547 17.9492 6.66004 17.7463 6.51482 17.6903C6.44763 17.6645 6.3763 17.6513 6.30434 17.6512H6.30351L6.30267 17.6512C6.22496 17.6509 6.14801 17.6663 6.07645 17.6966L6.06087 17.7032L3.4101 18.6599C3.30005 18.705 3.18408 18.7342 3.0657 18.7466L3.03237 18.7501L2.99886 18.75C2.86656 18.7496 2.73566 18.723 2.61374 18.6716C2.49182 18.6203 2.38129 18.5452 2.28857 18.4509C2.19586 18.3565 2.12278 18.2447 2.07359 18.1219C2.02439 17.999 2.00005 17.8677 2.00198 17.7354L2.00226 17.7166L2.00366 17.6979C2.01006 17.6124 2.02528 17.5278 2.04908 17.4454L2.79711 14.7396C2.78347 14.6967 2.75744 14.6398 2.72286 14.5787C2.70405 14.5476 2.68374 14.5174 2.662 14.4882L2.65132 14.4738L2.64147 14.4589C1.7334 13.0818 1.24932 11.4685 1.24918 9.81894Z" fill="#1F1F1F"/>
</svg>
