<svg width="24" height="24" viewBox="0 0 24 24" fill="none" xmlns="http://www.w3.org/2000/svg">
<mask id="path-1-outside-1_5703_9985" maskUnits="userSpaceOnUse" x="5.5" y="2" width="13" height="16" fill="black">
<rect fill="white" x="5.5" y="2" width="13" height="16"/>
<path fill-rule="evenodd" clip-rule="evenodd" d="M14.5 3H16.9286L13.2139 9.50073L17.4992 17H12.9992L12.4277 16H14.4992L11.9996 11.6257L9.5 16H11.5714L11 17H6.5L10.7853 9.50073L7.07059 3H9.49916L11.9996 7.37573L14.5 3Z"/>
</mask>
<path fill-rule="evenodd" clip-rule="evenodd" d="M14.5 3H16.9286L13.2139 9.50073L17.4992 17H12.9992L12.4277 16H14.4992L11.9996 11.6257L9.5 16H11.5714L11 17H6.5L10.7853 9.50073L7.07059 3H9.49916L11.9996 7.37573L14.5 3Z" fill="#AF3838"/>
<path d="M16.9286 3L17.3627 3.24807C17.4511 3.09332 17.4505 2.90319 17.361 2.74904C17.2716 2.59488 17.1068 2.5 16.9286 2.5V3ZM14.5 3V2.5C14.3206 2.5 14.1549 2.59614 14.0659 2.75193L14.5 3ZM13.2139 9.50073L12.7797 9.25266C12.6919 9.40638 12.6919 9.59509 12.7797 9.7488L13.2139 9.50073ZM17.4992 17V17.5C17.6774 17.5 17.8422 17.4051 17.9316 17.251C18.0211 17.0968 18.0217 16.9067 17.9333 16.7519L17.4992 17ZM12.9992 17L12.565 17.2481C12.6541 17.4039 12.8197 17.5 12.9992 17.5V17ZM12.4277 16V15.5C12.2495 15.5 12.0847 15.5949 11.9953 15.749C11.9058 15.9032 11.9052 16.0933 11.9936 16.2481L12.4277 16ZM14.4992 16V16.5C14.6774 16.5 14.8422 16.4051 14.9316 16.251C15.0211 16.0968 15.0217 15.9067 14.9333 15.7519L14.4992 16ZM11.9996 11.6257L12.4337 11.3777C12.3447 11.2219 12.179 11.1257 11.9996 11.1257C11.8202 11.1257 11.6545 11.2219 11.5655 11.3777L11.9996 11.6257ZM9.5 16L9.06588 15.7519C8.97745 15.9067 8.97808 16.0968 9.06754 16.251C9.15701 16.4051 9.32176 16.5 9.5 16.5V16ZM11.5714 16L12.0056 16.2481C12.094 16.0933 12.0933 15.9032 12.0039 15.749C11.9144 15.5949 11.7497 15.5 11.5714 15.5V16ZM11 17V17.5C11.1794 17.5 11.3451 17.4039 11.4341 17.2481L11 17ZM6.5 17L6.06588 16.7519C5.97745 16.9067 5.97808 17.0968 6.06754 17.251C6.15701 17.4051 6.32176 17.5 6.5 17.5V17ZM10.7853 9.50073L11.2194 9.7488C11.3073 9.59509 11.3073 9.40638 11.2194 9.25266L10.7853 9.50073ZM7.07059 3V2.5C6.89236 2.5 6.7276 2.59488 6.63814 2.74904C6.54868 2.90319 6.54804 3.09332 6.63647 3.24807L7.07059 3ZM9.49916 3L9.93329 2.75193C9.84426 2.59614 9.67859 2.5 9.49916 2.5V3ZM11.9996 7.37573L11.5655 7.6238C11.6545 7.77959 11.8202 7.87573 11.9996 7.87573C12.179 7.87573 12.3447 7.77959 12.4337 7.6238L11.9996 7.37573ZM16.9286 2.5H14.5V3.5H16.9286V2.5ZM13.648 9.7488L17.3627 3.24807L16.4945 2.75193L12.7797 9.25266L13.648 9.7488ZM12.7797 9.7488L17.065 17.2481L17.9333 16.7519L13.648 9.25266L12.7797 9.7488ZM17.4992 16.5H12.9992V17.5H17.4992V16.5ZM13.4333 16.7519L12.8619 15.7519L11.9936 16.2481L12.565 17.2481L13.4333 16.7519ZM12.4277 16.5H14.4992V15.5H12.4277V16.5ZM14.9333 15.7519L12.4337 11.3777L11.5655 11.8738L14.065 16.2481L14.9333 15.7519ZM9.93412 16.2481L12.4337 11.8738L11.5655 11.3777L9.06588 15.7519L9.93412 16.2481ZM11.5714 15.5H9.5V16.5H11.5714V15.5ZM11.4341 17.2481L12.0056 16.2481L11.1373 15.7519L10.5659 16.7519L11.4341 17.2481ZM6.5 17.5H11V16.5H6.5V17.5ZM10.3512 9.25266L6.06588 16.7519L6.93412 17.2481L11.2194 9.7488L10.3512 9.25266ZM11.2194 9.25266L7.50471 2.75193L6.63647 3.24807L10.3512 9.7488L11.2194 9.25266ZM7.07059 3.5H9.49916V2.5H7.07059V3.5ZM9.06504 3.24807L11.5655 7.6238L12.4337 7.12766L9.93329 2.75193L9.06504 3.24807ZM14.0659 2.75193L11.5655 7.12766L12.4337 7.6238L14.9341 3.24807L14.0659 2.75193Z" fill="#6F0808" mask="url(#path-1-outside-1_5703_9985)"/>
<mask id="path-3-outside-2_5703_9985" maskUnits="userSpaceOnUse" x="1.5" y="1" width="21" height="10" fill="black">
<rect fill="white" x="1.5" y="1" width="21" height="10"/>
<path fill-rule="evenodd" clip-rule="evenodd" d="M7 2H2.5L6.82598 9.57047C7.76969 8.6709 8.94761 8.01486 10.2589 7.70313L7 2ZM13.7411 7.70313C15.0524 8.01486 16.2303 8.6709 17.174 9.57047L21.5 2H17L13.7411 7.70313Z"/>
</mask>
<path fill-rule="evenodd" clip-rule="evenodd" d="M7 2H2.5L6.82598 9.57047C7.76969 8.6709 8.94761 8.01486 10.2589 7.70313L7 2ZM13.7411 7.70313C15.0524 8.01486 16.2303 8.6709 17.174 9.57047L21.5 2H17L13.7411 7.70313Z" fill="#D14848"/>
<path d="M2.5 2V1.5C2.32176 1.5 2.15701 1.59488 2.06754 1.74904C1.97808 1.90319 1.97745 2.09332 2.06588 2.24807L2.5 2ZM7 2L7.43412 1.75193C7.3451 1.59614 7.17943 1.5 7 1.5V2ZM6.82598 9.57047L6.39186 9.81854C6.46814 9.95202 6.60157 10.043 6.75369 10.0652C6.90581 10.0874 7.0597 10.0385 7.17097 9.93239L6.82598 9.57047ZM10.2589 7.70313L10.3746 8.18958C10.5278 8.15314 10.655 8.04659 10.7177 7.90204C10.7803 7.75749 10.7712 7.59186 10.6931 7.45506L10.2589 7.70313ZM13.7411 7.70313L13.3069 7.45506C13.2288 7.59186 13.2197 7.75749 13.2823 7.90204C13.345 8.04659 13.4722 8.15314 13.6254 8.18958L13.7411 7.70313ZM17.174 9.57047L16.829 9.93239C16.9403 10.0385 17.0942 10.0874 17.2463 10.0652C17.3984 10.043 17.5319 9.95202 17.6081 9.81854L17.174 9.57047ZM21.5 2L21.9341 2.24807C22.0226 2.09332 22.0219 1.90319 21.9325 1.74904C21.843 1.59488 21.6782 1.5 21.5 1.5V2ZM17 2V1.5C16.8206 1.5 16.6549 1.59614 16.5659 1.75193L17 2ZM2.5 2.5H7V1.5H2.5V2.5ZM7.26011 9.3224L2.93412 1.75193L2.06588 2.24807L6.39186 9.81854L7.26011 9.3224ZM7.17097 9.93239C8.05228 9.09231 9.15159 8.4803 10.3746 8.18958L10.1433 7.21669C8.74363 7.54941 7.48711 8.2495 6.481 9.20856L7.17097 9.93239ZM6.56588 2.24807L9.82481 7.9512L10.6931 7.45506L7.43412 1.75193L6.56588 2.24807ZM13.6254 8.18958C14.8484 8.4803 15.9477 9.09231 16.829 9.93239L17.519 9.20856C16.5129 8.2495 15.2564 7.54941 13.8567 7.21669L13.6254 8.18958ZM21.0659 1.75193L16.7399 9.3224L17.6081 9.81854L21.9341 2.24807L21.0659 1.75193ZM17 2.5H21.5V1.5H17V2.5ZM14.1752 7.9512L17.4341 2.24807L16.5659 1.75193L13.3069 7.45506L14.1752 7.9512Z" fill="#6F0808" mask="url(#path-3-outside-2_5703_9985)"/>
<path d="M3.25 2.5L6.875 8.75" stroke="#FF7E7E" stroke-width="0.5" stroke-linecap="round" stroke-linejoin="round"/>
<path d="M17.25 2.5L14.375 7.5" stroke="#FF7E7E" stroke-width="0.5" stroke-linecap="round" stroke-linejoin="round"/>
<circle cx="12" cy="15" r="7.25" fill="#FFB423" stroke="#5B3303" stroke-width="0.5" stroke-linejoin="round"/>
<circle cx="12" cy="15" r="5.75" fill="#FFDD65"/>
<circle cx="15.1705" cy="19.6114" r="0.5" transform="rotate(-8.26953 15.1705 19.6114)" fill="#FBCD2C"/>
<circle cx="14.9895" cy="18.1531" r="0.469153" transform="rotate(-8.26953 14.9895 18.1531)" fill="#FBCD2C"/>
<circle cx="17.1748" cy="16.6753" r="0.375" transform="rotate(-8.26953 17.1748 16.6753)" fill="#FBCD2C"/>
<circle cx="12.4849" cy="20.2542" r="0.5" transform="rotate(-8.26953 12.4849 20.2542)" fill="#FBCD2C"/>
<circle cx="16.3618" cy="17.7191" r="0.451243" transform="rotate(-8.26953 16.3618 17.7191)" fill="#FBCD2C"/>
<circle cx="16.2831" cy="16.0335" r="0.25" transform="rotate(-8.26953 16.2831 16.0335)" fill="#FBCD2C"/>
<circle cx="13.2831" cy="19.2835" r="0.25" transform="rotate(-8.26953 13.2831 19.2835)" fill="#FBCD2C"/>
<circle cx="16.5829" cy="18.9009" r="0.25" transform="rotate(-8.26953 16.5829 18.9009)" fill="#FBCD2C"/>
<circle cx="13.7831" cy="20.0335" r="0.25" transform="rotate(-8.26953 13.7831 20.0335)" fill="#FBCD2C"/>
<circle cx="11.0365" cy="20.7175" r="0.25" transform="rotate(-8.26953 11.0365 20.7175)" fill="#FBCD2C"/>
<circle cx="12" cy="15" r="6" stroke="#DF8D12" stroke-width="0.5" stroke-linejoin="round"/>
<path d="M5.5 15C5.5 11.4101 8.41015 8.5 12 8.5" stroke="#FFCF72" stroke-width="0.5" stroke-linecap="round" stroke-linejoin="round"/>
<circle cx="12" cy="15" r="4.5" fill="#FFCF23" stroke="#DF8D12" stroke-width="0.5"/>
<path d="M8 15C8 12.7909 9.79086 11 12 11" stroke="#FFF4CD" stroke-width="0.5" stroke-linecap="round" stroke-linejoin="round"/>
<path d="M9.45034 14.155C9.36038 14.1732 9.28765 14.2393 9.26087 14.3271C9.2341 14.4149 9.25758 14.5103 9.32206 14.5756L10.4791 15.7481L10.1922 17.2016C10.1737 17.2954 10.2103 17.3915 10.2865 17.4493C10.3627 17.507 10.4652 17.5162 10.5505 17.473L12 16.7386L13.4495 17.473C13.5348 17.5162 13.6373 17.507 13.7135 17.4493C13.7897 17.3915 13.8263 17.2954 13.8078 17.2016L13.5209 15.7481L14.6779 14.5756C14.7424 14.5103 14.7659 14.4149 14.7391 14.3271C14.7123 14.2393 14.6396 14.1732 14.5497 14.155L13.096 13.8604L12.2151 12.3726C12.1701 12.2966 12.0883 12.25 12 12.25C11.9117 12.25 11.8299 12.2966 11.7849 12.3726L11.3161 13.1643L10.904 13.8604L9.45034 14.155Z" fill="#FFE9AF" stroke="#C37808" stroke-width="0.5" stroke-linecap="round" stroke-linejoin="round"/>
<circle cx="19" cy="3" r="0.25" fill="#A63434"/>
<circle cx="20" cy="3" r="0.25" fill="#A63434"/>
<circle cx="18.75" cy="5.5" r="0.25" fill="#A63434"/>
<circle cx="17.75" cy="7" r="0.25" fill="#A63434"/>
<circle cx="18" cy="3.75" r="0.25" fill="#A63434"/>
<circle cx="18.875" cy="4.375" r="0.375" fill="#A63434"/>
<circle cx="17.875" cy="5.625" r="0.375" fill="#A63434"/>
</svg>
