<svg xmlns="http://www.w3.org/2000/svg" width="24" height="24" viewBox="0 0 24 24" fill="none">
  <path
    d="M6.79688 9.41016H9.89062V6.55078C9.89062 6.55078 9.92578 6.18359 9.99609 5.44922C10.0664 4.71484 10.4531 3.99609 11.1562 3.29297C11.875 2.57422 12.7227 2.1875 13.6992 2.13281C14.6758 2.07812 15.8438 2.11328 17.2031 2.23828V5.42578H15.1875C15.1875 5.42578 15.0312 5.44141 14.7188 5.47266C14.4062 5.50391 14.1484 5.62891 13.9453 5.84766C13.7578 6.08203 13.6523 6.33203 13.6289 6.59766C13.6055 6.86328 13.5938 7.03516 13.5938 7.11328V9.41016H17.0859L16.6406 12.9492H13.5703V22.0898H9.89062V12.9492H6.79688V9.41016Z"
    fill="#1B1B1B" />
</svg>