<svg xmlns="http://www.w3.org/2000/svg" width="24" height="24" viewBox="0 0 24 24" fill="none">
  <path
    d="M12 2.09808C10.625 2.09808 9.32812 2.35979 8.10938 2.88323C6.89062 3.40667 5.82812 4.12151 4.92188 5.02776C4.01562 5.93401 3.30078 6.99261 2.77734 8.20354C2.25391 9.41448 1.99219 10.7074 1.99219 12.0824C1.99219 13.1918 2.16406 14.2465 2.50781 15.2465C2.85156 16.2465 3.32422 17.1606 3.92578 17.9887C4.52734 18.8168 5.25 19.5395 6.09375 20.1567C6.9375 20.7739 7.85156 21.2465 8.83594 21.5746C9.08594 21.6215 9.26172 21.5864 9.36328 21.4692C9.46484 21.352 9.51562 21.2309 9.51562 21.1059C9.51562 20.9809 9.51562 20.7699 9.51562 20.4731C9.51562 20.1762 9.51562 19.8168 9.51562 19.3949C8.125 19.6918 7.21484 19.5434 6.78516 18.9496C6.35547 18.3559 6.14062 18.059 6.14062 18.059C5.90625 17.4809 5.66406 17.0903 5.41406 16.8871C5.16406 16.684 5.03906 16.5824 5.03906 16.5824C4.58594 16.2856 4.48047 16.1137 4.72266 16.0668C4.96484 16.0199 5.08594 15.9965 5.08594 15.9965C5.60156 16.0278 5.98828 16.2074 6.24609 16.5356C6.50391 16.8637 6.63281 17.0278 6.63281 17.0278C7.07031 17.7778 7.59375 18.1332 8.20312 18.0942C8.8125 18.0551 9.25781 17.9731 9.53906 17.8481C9.58594 17.5199 9.66797 17.2465 9.78516 17.0278C9.90234 16.809 10.0312 16.6371 10.1719 16.5121C9.0625 16.3871 8.02734 16.0121 7.06641 15.3871C6.10547 14.7621 5.625 13.4887 5.625 11.5668C5.625 11.0199 5.71484 10.5239 5.89453 10.0785C6.07422 9.63323 6.32812 9.2387 6.65625 8.89495C6.59375 8.75433 6.52344 8.44964 6.44531 7.98089C6.36719 7.51214 6.46875 6.93401 6.75 6.24651C6.75 6.24651 6.96875 6.25432 7.40625 6.26995C7.84375 6.28558 8.53906 6.6137 9.49219 7.25433C9.89844 7.14495 10.3125 7.06292 10.7344 7.00823C11.1562 6.95354 11.5781 6.9262 12 6.9262C12.4219 6.9262 12.8438 6.95354 13.2656 7.00823C13.6875 7.06292 14.1016 7.14495 14.5078 7.25433C15.4609 6.6137 16.1562 6.28558 16.5938 6.26995C17.0312 6.25432 17.25 6.24651 17.25 6.24651C17.5156 6.93401 17.6133 7.51214 17.543 7.98089C17.4727 8.44964 17.4062 8.75433 17.3438 8.89495C17.6719 9.2387 17.9258 9.63323 18.1055 10.0785C18.2852 10.5239 18.375 11.0199 18.375 11.5668C18.375 13.4887 17.8945 14.7621 16.9336 15.3871C15.9727 16.0121 14.9297 16.3871 13.8047 16.5121C13.9922 16.6528 14.1523 16.8793 14.2852 17.1918C14.418 17.5043 14.4844 17.8949 14.4844 18.3637C14.4844 19.0199 14.4844 19.5981 14.4844 20.0981C14.4844 20.5981 14.4844 20.934 14.4844 21.1059C14.4844 21.2309 14.5352 21.352 14.6367 21.4692C14.7383 21.5864 14.9141 21.6215 15.1641 21.5746C16.1641 21.2465 17.082 20.7739 17.918 20.1567C18.7539 19.5395 19.4727 18.8168 20.0742 17.9887C20.6758 17.1606 21.1484 16.2465 21.4922 15.2465C21.8359 14.2465 22.0078 13.1918 22.0078 12.0824C22.0078 10.7074 21.7461 9.41448 21.2227 8.20354C20.6992 6.99261 19.9844 5.93401 19.0781 5.02776C18.1719 4.12151 17.1094 3.40667 15.8906 2.88323C14.6719 2.35979 13.375 2.09808 12 2.09808Z"
    fill="#1B1B1B" />
</svg>