<svg width="700" height="160" viewBox="0 0 700 160" fill="none" xmlns="http://www.w3.org/2000/svg">
  <g clip-path="url(#clip0_5823_30743)">
    <rect width="700" height="160" rx="12" fill="#1B1B1B" />
    <g clip-path="url(#clip1_5823_30743)">
      <rect width="826.681" height="33.0722" transform="translate(-17 146.895) rotate(-11.7888)"
        fill="#FF6000" />
      <path
        d="M8.7949 163.512L6.91705 154.514L8.03553 154.281L9.70588 162.284L13.8815 161.412L14.089 162.407L8.7949 163.512ZM17.9129 161.751C16.075 162.141 14.5417 161.009 14.1047 158.915C13.665 156.808 14.6186 155.163 16.4579 154.779C18.2909 154.397 19.8104 155.526 20.2439 157.634C20.6871 159.726 19.7473 161.375 17.9129 161.751ZM15.1734 158.692C15.4611 160.039 16.3426 161.093 17.7158 160.807C19.0766 160.523 19.4565 159.205 19.1751 157.857C18.895 156.514 18.0158 155.44 16.655 155.724C15.2817 156.011 14.8995 157.348 15.1734 158.692ZM25.3194 162.851C23.6852 163.192 22.43 162.708 22.0513 161.484L23.1698 161.251C23.4567 161.911 24.168 162.119 25.1249 161.919C26.2807 161.678 26.884 161.027 26.6519 159.914L26.3666 158.547L26.2796 158.566C26.1275 158.986 25.8582 159.84 24.5546 160.119C22.9129 160.455 21.4245 159.475 20.981 157.35C20.5478 155.275 21.4649 153.734 23.1613 153.38C24.4724 153.107 25.0609 153.814 25.3785 154.124L25.4655 154.106L25.2424 153.037L26.2863 152.819L27.7336 159.754C28.0905 161.495 26.9661 162.507 25.3194 162.851ZM22.07 157.162C22.3617 158.56 23.224 159.398 24.504 159.131C25.7406 158.873 26.2387 157.841 25.9349 156.355C25.6265 154.908 24.7529 154.047 23.4977 154.309C22.199 154.58 21.7859 155.801 22.07 157.162ZM31.8666 158.839C30.0286 159.229 28.4953 158.097 28.0583 156.003C27.6187 153.896 28.5722 152.251 30.4115 151.867C32.2446 151.485 33.7641 152.614 34.1975 154.721C34.6408 156.814 33.7009 158.463 31.8666 158.839ZM29.1271 155.78C29.4147 157.127 30.2962 158.181 31.6694 157.895C33.0303 157.611 33.4101 156.293 33.1287 154.944C32.8486 153.602 31.9694 152.528 30.6086 152.812C29.2354 153.098 28.8532 154.436 29.1271 155.78ZM41.79 156.625L38.9938 157.209L37.116 148.211L40.024 147.604C42.6524 147.056 44.5511 148.417 45.136 151.219C45.7222 154.028 44.5303 156.053 41.79 156.625ZM39.9048 155.981L41.5079 155.647C43.7138 155.186 44.4976 153.629 44.0424 151.448C43.5885 149.273 42.251 148.177 40.1569 148.614L38.4419 148.972L39.9048 155.981ZM50.1251 155.028C48.1753 155.442 46.6793 154.301 46.2475 152.232C45.8143 150.157 46.7375 148.46 48.5706 148.077C49.9873 147.782 51.6664 148.339 52.1815 150.838L52.2749 151.286L47.3785 152.308C47.7327 153.725 48.7287 154.334 49.928 154.084C50.7358 153.915 51.1714 153.455 51.333 152.987L52.4764 152.748C52.3734 153.839 51.5183 154.744 50.1251 155.028ZM47.1953 151.399L51.0044 150.604C50.7634 149.481 49.88 148.79 48.7677 149.022C47.5995 149.266 47.052 150.34 47.1953 151.399ZM56.6894 148.302C56.4235 147.774 55.9183 147.497 55.1278 147.655C54.2965 147.835 53.7995 148.406 53.9113 148.973C54.0109 149.419 54.4349 149.648 55.2642 149.676L56.3227 149.715C57.5878 149.749 58.3039 150.228 58.506 151.165C58.7436 152.335 57.9731 153.397 56.2817 153.743C54.7668 154.066 53.7245 153.577 53.2875 152.384L54.406 152.151C54.6677 152.783 55.2123 153 56.0623 152.817C57.0267 152.622 57.5452 152.092 57.4129 151.458C57.313 150.98 56.9064 150.74 56.1045 150.72L55.0362 150.696C53.8047 150.668 53.0436 150.159 52.8555 149.258C52.6143 148.102 53.4534 147.058 54.9385 146.748C56.3366 146.456 57.3683 147.019 57.7333 148.084L56.6894 148.302ZM59.974 152.83L58.5656 146.082L59.6344 145.859L61.0427 152.607L59.974 152.83ZM57.973 144.299C57.8838 143.903 58.1594 143.515 58.5709 143.435C58.9797 143.343 59.3876 143.589 59.4768 143.985C59.5523 144.378 59.2766 144.766 58.8665 144.852C58.4564 144.938 58.0485 144.692 57.973 144.299ZM65.7189 154.419C64.0847 154.761 62.8295 154.277 62.4507 153.052L63.5692 152.819C63.8561 153.479 64.5674 153.687 65.5243 153.487C66.6801 153.246 67.2834 152.595 67.0513 151.483L66.766 150.116L66.679 150.134C66.5269 150.555 66.2577 151.408 64.9541 151.687C63.3123 152.023 61.8239 151.043 61.3804 148.918C60.9473 146.843 61.8643 145.303 63.5607 144.949C64.8718 144.675 65.4603 145.382 65.7779 145.692L65.8649 145.674L65.6418 144.605L66.6857 144.387L68.133 151.322C68.4899 153.063 67.3655 154.076 65.7189 154.419ZM62.4694 148.73C62.7612 150.128 63.6234 150.966 64.9035 150.699C66.14 150.441 66.6381 149.41 66.3343 147.923C66.026 146.477 65.1523 145.615 63.8971 145.877C62.5984 146.148 62.1854 147.369 62.4694 148.73ZM69.7018 146.572L70.5473 150.623L69.4785 150.847L68.0702 144.098L69.1016 143.883L69.3221 144.939L69.4091 144.921C69.5821 144.165 70.1212 143.58 71.1465 143.366C72.5135 143.08 73.6007 143.722 73.9524 145.439L74.8472 149.726L73.7785 149.949L72.8992 145.736C72.6813 144.692 71.98 144.19 71.0231 144.39C70.0413 144.595 69.458 145.404 69.7018 146.572Z"
        fill="white" />
      <path
        d="M87.0752 143.906C86.6389 143.99 86.1909 143.708 86.1112 143.264C86.008 142.832 86.3056 142.393 86.7406 142.303C87.1817 142.21 87.6174 142.496 87.7019 142.932C87.8002 143.372 87.515 143.807 87.0752 143.906Z"
        fill="white" />
      <path
        d="M102.493 136.577C102.899 138.522 104.604 140.26 106.337 140.703L105.904 141.61C104.553 141.231 103.261 140.132 102.45 138.7C102.298 140.43 101.546 142.046 100.442 142.971L99.6575 142.317C101.107 141.185 101.945 138.799 101.536 136.777L101.116 134.763L102.073 134.564L102.493 136.577ZM108.056 143.846L105.75 132.798L106.72 132.595L107.656 137.082L109.508 136.695L109.684 137.54L107.832 137.927L109.025 143.643L108.056 143.846ZM113.51 134.719C113.908 136.594 115.667 138.217 117.441 138.58L117.055 139.464C115.641 139.15 114.263 138.108 113.428 136.687C113.251 138.417 112.425 140.055 111.296 140.952L110.551 140.303C111.977 139.214 112.921 136.839 112.528 134.923L112.227 133.482L109.617 134.027L109.449 133.219L115.675 131.919L115.843 132.727L113.209 133.277L113.51 134.719ZM119.283 141.502L116.977 130.454L117.959 130.249L120.265 141.298L119.283 141.502ZM125.318 129.881L126.805 137.002L121.709 138.065L120.223 130.944L125.318 129.881ZM122.488 137.073L125.669 136.409L124.513 130.866L121.331 131.53L122.488 137.073ZM129.417 139.388L127.111 128.339L128.08 128.137L129.001 132.549L130.853 132.162L131.029 133.008L129.177 133.394L130.386 139.185L129.417 139.388Z"
        fill="white" />
      <path
        d="M143.852 132.056C143.416 132.141 142.968 131.858 142.888 131.414C142.785 130.982 143.082 130.544 143.517 130.453C143.959 130.361 144.394 130.646 144.479 131.082C144.577 131.522 144.292 131.958 143.852 132.056Z"
        fill="white" />
      <path
        d="M166.207 124.784L166.378 125.604L164.588 125.977L165.802 131.793L164.833 131.996L162.527 120.948L163.496 120.745L164.417 125.157L166.207 124.784ZM157.126 130.673L155.634 123.527L156.604 123.325L157.924 129.651C159.54 129.314 161.16 128.846 162.9 128.08L163.199 128.887C161.371 129.671 159.68 130.14 158.008 130.489L157.126 130.673ZM177.612 117.799L179.923 128.872L178.941 129.077L176.63 118.004L177.612 117.799ZM169.895 124.325C169.411 121.975 170.267 120.234 171.912 119.884C173.554 119.548 175.053 120.797 175.537 123.148C176.035 125.501 175.16 127.24 173.518 127.576C171.873 127.926 170.393 126.679 169.895 124.325ZM170.84 124.128C171.215 125.924 172.232 126.944 173.336 126.706C174.45 126.481 174.968 125.14 174.593 123.345C174.218 121.549 173.208 120.528 172.094 120.754C170.989 120.991 170.465 122.332 170.84 124.128ZM188.329 115.563L190.635 126.611L189.666 126.813L188.457 121.022L185.822 121.572L185.654 120.764L188.288 120.214L187.36 115.765L188.329 115.563ZM180.899 125.634C183.586 123.562 184.526 121.142 184.186 118.515L180.097 119.369L179.931 118.573L185.002 117.515C185.649 120.648 184.905 123.702 181.597 126.305L180.899 125.634ZM197.062 116.84C197.468 118.785 199.173 120.523 200.906 120.966L200.473 121.873C199.122 121.493 197.83 120.395 197.018 118.963C196.867 120.693 196.115 122.309 195.011 123.233L194.226 122.58C195.676 121.447 196.514 119.061 196.105 117.039L195.685 115.026L196.642 114.826L197.062 116.84ZM202.625 124.108L200.319 113.06L201.289 112.858L202.225 117.344L204.077 116.958L204.253 117.803L202.401 118.189L203.594 123.906L202.625 124.108ZM213.423 115.733L213.589 116.529L210.172 117.242L210.768 120.1L215.379 119.138L215.55 119.958L205.434 122.07L205.263 121.249L209.811 120.3L209.215 117.442L205.959 118.121L204.9 113.051L212.419 111.482L212.585 112.277L206.048 113.641L206.774 117.121L213.423 115.733ZM218.472 117.442C219.18 117.294 220.068 117.102 220.987 116.878L220.525 114.666L218.599 115.068L217.67 110.619L222.368 109.639L222.537 110.446L218.796 111.227L219.387 114.061L223.227 113.259L223.396 114.067L221.47 114.469L221.925 116.65C222.731 116.443 223.526 116.212 224.211 115.985L224.409 116.683C222.647 117.375 220.291 117.925 218.792 118.231L218.472 117.442ZM225.323 118.762L223.191 108.546L224.098 108.357L225.008 112.719L226.388 112.431L225.425 107.82L226.37 107.623L228.676 118.671L227.731 118.868L226.554 113.226L225.174 113.514L226.23 118.572L225.323 118.762ZM230.973 114.431C230.638 112.763 231.041 112.147 231.79 111.446C232.241 111.028 232.528 110.449 232.383 109.753C232.207 108.908 231.435 108.505 230.616 108.682C229.907 108.824 229.28 109.396 229.426 110.435L228.295 110.671C228.042 109.148 228.996 108.035 230.419 107.738C231.979 107.412 233.201 108.201 233.487 109.575C233.691 110.55 233.372 111.323 232.7 111.956C232.022 112.591 231.842 113.128 232.042 114.208L232.055 114.27L230.986 114.493L230.973 114.431ZM231.139 116.342C231.035 115.909 231.333 115.471 231.768 115.38C232.209 115.288 232.645 115.573 232.729 116.01C232.828 116.45 232.542 116.885 232.102 116.983C231.666 117.068 231.218 116.785 231.139 116.342Z"
        fill="white" />
      <path
        d="M246.637 110.604C246.201 110.689 245.753 110.406 245.673 109.962C245.57 109.53 245.868 109.092 246.303 109.001C246.744 108.909 247.179 109.194 247.264 109.63C247.362 110.07 247.077 110.506 246.637 110.604Z"
        fill="white" />
      <path
        d="M261.699 101.573C262.009 103.058 263.41 104.114 265.133 104.293L264.77 105.16C263.443 104.989 262.303 104.339 261.592 103.326C261.387 104.705 260.57 105.887 259.347 106.642L258.686 105.962C260.238 105.042 261.081 103.426 260.743 101.772L260.558 100.89L261.515 100.69L261.699 101.573ZM260.795 107.805L260.632 107.022L267.678 105.551L268.228 108.186L262.164 109.452L262.418 110.669L268.893 109.318L269.059 110.114L261.627 111.665L261.051 108.906L267.103 107.643L266.872 106.536L260.795 107.805ZM266.605 105.256L265.399 99.4776L266.369 99.2753L266.874 101.699L268.54 101.351L268.711 102.171L267.046 102.519L267.575 105.054L266.605 105.256ZM277.161 97.0229L278.113 101.584L279.79 101.234L279.961 102.054L278.284 102.404L279.466 108.071L278.485 108.276L276.179 97.2278L277.161 97.0229ZM270.042 106.848C271.351 104.791 271.599 102.593 271.264 100.368L269.145 100.81L268.974 99.9895L272.019 99.3541C272.555 101.985 272.507 104.706 270.942 107.243L270.042 106.848ZM273.367 106.932C274.687 104.62 274.691 102.058 274.303 99.7334L272.538 100.102L272.367 99.2814L275.051 98.7212C275.592 101.345 275.844 104.476 274.276 107.313L273.367 106.932ZM290.605 94.217L291.105 96.6156L292.771 96.268L292.942 97.0882L291.277 97.4358L291.78 99.8467L290.81 100.049L289.635 94.4194L290.605 94.217ZM283.493 100.967L282.572 96.5549L287.68 95.4889L288.601 99.9007L283.493 100.967ZM284.286 99.984L287.493 99.3149L286.901 96.4814L283.695 97.1506L284.286 99.984ZM285.006 102.622L284.842 101.839L291.889 100.369L292.452 103.065L286.387 104.331L286.651 105.599L293.126 104.247L293.29 105.03L285.858 106.581L285.274 103.785L291.327 102.522L291.083 101.354L285.006 102.622ZM301.397 91.9647L302.349 96.5256L304.026 96.1754L304.198 96.9956L302.52 97.3458L303.703 103.013L302.721 103.218L300.415 92.1696L301.397 91.9647ZM294.278 101.789C295.587 99.733 295.835 97.5349 295.5 95.3093L293.381 95.7515L293.21 94.9313L296.255 94.2958C296.791 96.9268 296.743 99.6474 295.178 102.185L294.278 101.789ZM297.603 101.874C298.923 99.5619 298.927 96.9999 298.539 94.6751L296.774 95.0434L296.603 94.2232L299.287 93.6629C299.828 96.2864 300.08 99.4178 298.512 102.254L297.603 101.874ZM315.298 90.2306L315.529 91.3366C315.799 92.6938 316.116 94.21 316.182 96.5175L315.165 96.6132C315.14 94.4136 314.817 92.8664 314.547 91.5415L314.485 91.2433L307.675 92.6646L307.506 91.8568L315.298 90.2306ZM308.183 100.444L308.014 99.6358L311.966 98.811L311.141 94.8591L312.098 94.6594L312.923 98.6113L318.081 97.5349L318.249 98.3427L308.183 100.444ZM322.853 88.4982L323.921 93.6184L318.739 94.7L317.67 89.5798L322.853 88.4982ZM319.533 93.7173L322.801 93.0352L322.064 89.5057L318.796 90.1879L319.533 93.7173ZM321.1 98.9926L320.372 95.5005L321.341 95.2982L321.901 97.9825L328.413 96.6234L328.582 97.4312L321.1 98.9926ZM326.696 94.9845L325.039 87.0433L326.008 86.841L327.666 94.7822L326.696 94.9845ZM334.747 88.7912L334.913 89.5866L332.676 90.0535L332.997 91.5945C334.02 91.3357 335.036 91.0459 335.971 90.7405L336.196 91.4457C333.884 92.2718 331.27 92.8887 329.195 93.3218L328.88 92.5576C329.848 92.3491 330.933 92.1097 332.037 91.8403L331.706 90.2558L329.544 90.7071L328.771 87.0037L334.053 85.9013L334.221 86.7091L329.921 87.6066L330.36 89.7068L334.747 88.7912ZM331.759 96.9107L331.111 93.8038L332.08 93.6015L332.558 95.8881L339.119 94.5187L339.291 95.3389L331.759 96.9107ZM337.419 93.0838L335.694 84.8195L336.676 84.6146L338.401 92.8789L337.419 93.0838ZM346.795 82.4898L347.708 86.8643L349.559 86.4779L349.731 87.2981L347.879 87.6845L349.106 93.5628L348.136 93.7651L345.825 82.6921L346.795 82.4898ZM340.462 92.4747L338.955 85.2543L344.112 84.178L344.281 84.9857L340.093 85.8598L341.26 91.4522C343.259 91.0284 344.652 90.647 346.235 89.9989L346.536 90.818C344.867 91.4905 343.432 91.8548 341.332 92.2932L340.462 92.4747Z"
        fill="white" />
      <path
        d="M362.148 86.496C361.712 86.5806 361.264 86.298 361.184 85.8542C361.081 85.4219 361.379 84.9837 361.814 84.8929C362.255 84.8008 362.691 85.086 362.775 85.5222C362.873 85.9621 362.588 86.3977 362.148 86.496Z"
        fill="white" />
      <path
        d="M382.201 76.3324L382.432 77.4385C382.722 78.8304 383.05 80.4025 383.142 82.8928L382.127 83.0009C382.102 80.6457 381.757 78.9928 381.475 77.6382L381.412 77.34L374.751 78.7302L374.583 77.9224L382.201 76.3324ZM375.209 86.3901L375.04 85.5823L385.106 83.4814L385.275 84.2892L375.209 86.3901ZM398.094 77.8658L398.26 78.6612L388.181 80.7647L388.015 79.9693L392.564 79.02L392.26 77.566L388.992 78.2481L388.198 74.4453L395.742 72.8709L395.91 73.6787L389.336 75.0508L389.795 77.2505L396.469 75.8576L396.635 76.653L393.229 77.3637L393.533 78.8177L398.094 77.8658ZM390.36 84.6804L389.696 81.499L390.665 81.2967L391.158 83.6579L397.894 82.2521L398.065 83.0723L390.36 84.6804ZM406.261 71.7129C406.564 73.193 408.796 74.0371 410.781 73.9209L410.582 74.7667C408.8 74.8338 406.924 74.2656 405.975 73.076C405.582 74.5458 404.09 75.8169 402.454 76.4629L401.908 75.7728C403.769 75.0863 405.47 73.4213 405.168 71.9411L405.152 71.8666L401.61 72.6058L401.444 71.8104L409.609 70.1063L409.775 70.9017L406.246 71.6383L406.261 71.7129ZM401.838 78.4201L401.67 77.6123L411.736 75.5114L411.905 76.3192L407.331 77.2737L408.153 81.2132L407.196 81.413L406.374 77.4734L401.838 78.4201ZM420.129 68.3517L420.36 69.4578C420.63 70.8149 420.947 72.3311 421.013 74.6386L419.996 74.7343C419.971 72.5347 419.648 70.9875 419.378 69.6627L419.316 69.3644L412.506 70.7858L412.337 69.978L420.129 68.3517ZM413.014 78.5648L412.845 77.757L416.797 76.9322L415.972 72.9802L416.929 72.7805L417.754 76.7324L422.912 75.6561L423.08 76.4638L413.014 78.5648ZM433.549 65.6157L433.78 66.7218C434.07 68.1137 434.398 69.6858 434.49 72.1761L433.475 72.2842C433.45 69.929 433.106 68.2761 432.823 66.9215L432.761 66.6232L426.099 68.0135L425.931 67.2057L433.549 65.6157ZM426.557 75.6734L426.388 74.8656L436.455 72.7647L436.623 73.5725L426.557 75.6734ZM444.43 62.1127L445.615 67.7921L444.634 67.997L444.175 65.7973L441.726 66.3083L441.558 65.5005L444.006 64.9895L443.448 62.3176L444.43 62.1127ZM436.511 69.0957C439.024 67.9032 440.336 66.2353 440.158 64.4179L436.299 65.2233L436.131 64.4155L441.027 63.3935C441.6 66.14 440.042 68.3653 437.028 69.8309L436.511 69.0957ZM438.722 70.5537L438.556 69.7583L445.714 68.2643L446.277 70.9611L440.113 72.2476L440.383 73.5401L446.919 72.1758L447.088 72.9836L439.582 74.5502L438.988 71.7043L445.139 70.4204L444.898 69.2646L438.722 70.5537ZM449.27 68.871C448.934 67.2031 449.338 66.5873 450.086 65.8864C450.537 65.468 450.825 64.8892 450.68 64.1933C450.503 63.3482 449.732 62.9451 448.913 63.1225C448.203 63.2641 447.577 63.8358 447.722 64.8753L446.591 65.1113C446.338 63.5884 447.293 62.475 448.716 62.178C450.275 61.8525 451.497 62.6415 451.784 64.0147C451.987 64.9903 451.669 65.7636 450.997 66.3966C450.319 67.031 450.139 67.5678 450.338 68.648L450.351 68.7101L449.283 68.9332L449.27 68.871ZM449.435 70.7818C449.332 70.3495 449.629 69.9113 450.064 69.8205C450.505 69.7284 450.941 70.0136 451.026 70.4499C451.124 70.8897 450.839 71.3253 450.399 71.4236C449.963 71.5082 449.515 71.2256 449.435 70.7818Z"
        fill="white" />
      <path
        d="M464.934 65.0441C464.497 65.1287 464.049 64.8461 463.97 64.4023C463.866 63.97 464.164 63.5318 464.599 63.441C465.04 63.3489 465.476 63.6341 465.56 64.0703C465.659 64.5102 465.373 64.9458 464.934 65.0441Z"
        fill="white" />
      <path
        d="M487.217 58.7981L487.383 59.5935L477.317 61.6944L477.151 60.899L487.217 58.7981ZM477.644 57.6705C477.371 56.3594 478.716 55.2551 481.121 54.7533C483.513 54.254 485.181 54.7293 485.461 56.0391C485.73 57.3577 484.388 58.4483 481.995 58.9413C479.591 59.4494 477.919 58.9878 477.644 57.6705ZM479.139 64.3358C478.87 63.0757 480.146 62.0766 482.547 61.5884C484.912 61.0819 486.482 61.487 486.757 62.7458C487.012 64.0285 485.736 65.0276 483.367 65.5155C480.97 66.0223 479.4 65.6171 479.139 64.3358ZM478.651 57.4604C478.817 58.2882 480.044 58.5443 481.834 58.1708C483.605 57.8012 484.633 57.0743 484.467 56.2466C484.288 55.4214 483.055 55.1666 481.287 55.5486C479.495 55.9097 478.472 56.6353 478.651 57.4604ZM480.133 64.1283C480.28 64.8952 481.435 65.1146 483.203 64.7326C484.958 64.3793 485.929 63.7163 485.775 62.9508C485.608 62.1815 484.454 61.9621 482.703 62.3341C480.931 62.6974 479.96 63.3604 480.133 64.1283ZM498.693 50.7875L501.004 61.8604L500.022 62.0653L497.711 50.9924L498.693 50.7875ZM490.977 57.3131C490.493 54.963 491.349 53.2217 492.994 52.8718C494.636 52.5356 496.135 53.7855 496.619 56.1356C497.117 58.4893 496.241 60.2283 494.599 60.5644C492.954 60.9143 491.475 59.6668 490.977 57.3131ZM491.921 57.116C492.296 58.9118 493.313 59.9316 494.418 59.6945C495.531 59.4686 496.049 58.1285 495.675 56.3327C495.3 54.5369 494.289 53.5158 493.175 53.7417C492.071 53.9788 491.547 55.3202 491.921 57.116ZM509.426 48.5605L511.13 56.7254L510.148 56.9303L509.326 52.9907L506.878 53.5017L506.706 52.6815L509.155 52.1705L508.444 48.7654L509.426 48.5605ZM501.712 56.5252C504.078 55.156 505.517 53.1956 505.324 51.1543L501.347 51.9843L501.176 51.1641L506.222 50.111C506.802 52.9533 505.221 55.5398 502.297 57.22L501.712 56.5252ZM504.646 60.828L503.922 57.3608L504.916 57.1533L505.469 59.8003L511.794 58.4801L511.965 59.3003L504.646 60.828ZM518.143 49.8276C518.549 51.7726 520.254 53.5112 521.987 53.9536L521.554 54.861C520.204 54.4814 518.911 53.3829 518.1 51.9506C517.949 53.6811 517.197 55.297 516.093 56.2213L515.308 55.568C516.758 54.4355 517.595 52.0494 517.186 50.0274L516.766 48.0141L517.723 47.8144L518.143 49.8276ZM523.707 57.0963L521.401 46.0482L522.37 45.8459L523.306 50.3323L525.158 49.9458L525.335 50.7909L523.483 51.1773L524.676 56.894L523.707 57.0963ZM527.637 45.6416C529.266 45.308 530.735 46.5643 531.237 48.9105C531.716 51.2681 530.872 53.0006 529.242 53.3342C527.603 53.6828 526.143 52.4314 525.657 50.0751C525.161 47.7276 525.998 45.9901 527.637 45.6416ZM526.577 49.8831C526.958 51.6776 527.969 52.6987 529.061 52.4643C530.168 52.2396 530.667 50.9034 530.293 49.1076C529.918 47.3118 528.926 46.2869 527.818 46.5115C526.726 46.7459 526.208 48.0861 526.577 49.8831ZM534.387 54.8673L532.081 43.8192L533.05 43.6169L533.631 46.4006L535.421 46.0272L535.595 46.8598L533.805 47.2333L534.319 49.6939L536.108 49.3205L536.279 50.1407L534.49 50.5142L535.356 54.665L534.387 54.8673ZM541.098 43.9346L541.264 44.7299L535.721 45.8867L535.555 45.0913L537.854 44.6115L537.525 43.0332L538.494 42.8309L538.823 44.4092L541.098 43.9346ZM536.798 49.0597C536.492 47.5933 537.276 46.3468 538.648 46.054C540.041 45.7697 541.252 46.5999 541.57 48.0637C541.868 49.5514 541.092 50.8028 539.701 51.0995C538.326 51.3799 537.108 50.5448 536.798 49.0597ZM537.668 48.8782C537.873 49.8599 538.647 50.4311 539.522 50.242C540.406 50.0641 540.905 49.2271 540.7 48.2453C540.498 47.276 539.704 46.7025 538.819 46.8742C537.946 47.0695 537.466 47.9088 537.668 48.8782ZM543.462 52.4027L541.327 42.1748L542.247 41.9829L543.162 46.3698L544.629 46.0637L543.656 41.4034L544.588 41.2089L546.894 52.257L545.962 52.4515L544.797 46.8715L543.331 47.1776L544.381 52.2107L543.462 52.4027Z"
        fill="white" />
      <path
        d="M558.909 45.4308C558.472 45.5154 558.024 45.2328 557.945 44.7891C557.841 44.3567 558.139 43.9185 558.574 43.8277C559.015 43.7356 559.451 44.0208 559.535 44.4571C559.634 44.8969 559.349 45.3326 558.909 45.4308Z"
        fill="white" />
      <path
        d="M573.971 36.3993C574.281 37.8844 575.682 38.9408 577.405 39.1194L577.041 39.9864C575.715 39.8157 574.574 39.1654 573.864 38.153C573.658 39.5316 572.842 40.7137 571.618 41.4683L570.958 40.7892C572.51 39.8686 573.353 38.2532 573.014 36.599L572.83 35.7166L573.787 35.5169L573.971 36.3993ZM573.067 42.6314L572.904 41.8485L579.95 40.3779L580.5 43.0125L574.435 44.2782L574.689 45.4961L581.164 44.1448L581.33 44.9402L573.898 46.4912L573.323 43.7323L579.375 42.4692L579.144 41.3631L573.067 42.6314ZM578.877 40.0831L577.671 34.3043L578.64 34.102L579.146 36.5253L580.811 36.1778L580.982 36.998L579.317 37.3456L579.846 39.8808L578.877 40.0831ZM589.432 31.8496L590.384 36.4105L592.062 36.0603L592.233 36.8806L590.555 37.2307L591.738 42.8977L590.756 43.1026L588.45 32.0545L589.432 31.8496ZM582.314 41.6742C583.622 39.6179 583.87 37.4198 583.536 35.1942L581.417 35.6364L581.245 34.8162L584.29 34.1807C584.826 36.8117 584.778 39.5323 583.213 42.0701L582.314 41.6742ZM585.638 41.7585C586.959 39.4469 586.962 36.8848 586.574 34.56L584.809 34.9283L584.638 34.1081L587.323 33.5479C587.864 36.1714 588.115 39.3027 586.548 42.1393L585.638 41.7585ZM602.876 29.0437L603.377 31.4422L605.042 31.0947L605.213 31.9149L603.548 32.2624L604.051 34.6734L603.082 34.8757L601.907 29.246L602.876 29.0437ZM595.764 35.7934L594.844 31.3816L599.951 30.3156L600.872 34.7273L595.764 35.7934ZM596.558 34.8107L599.764 34.1415L599.173 31.308L595.967 31.9772L596.558 34.8107ZM597.277 37.4489L597.114 36.666L604.16 35.1953L604.723 37.8921L598.658 39.1578L598.923 40.4255L605.398 39.0741L605.561 39.8571L598.129 41.4081L597.546 38.6119L603.598 37.3488L603.354 36.1806L597.277 37.4489ZM613.668 26.7913L614.62 31.3522L616.298 31.0021L616.469 31.8223L614.791 32.1724L615.974 37.8394L614.992 38.0443L612.687 26.9962L613.668 26.7913ZM606.55 36.616C607.858 34.5596 608.107 32.3615 607.772 30.1359L605.653 30.5781L605.482 29.7579L608.526 29.1225C609.063 31.7535 609.014 34.474 607.449 37.0118L606.55 36.616ZM609.874 36.7002C611.195 34.3886 611.198 31.8265 610.81 29.5018L609.046 29.8701L608.874 29.0498L611.559 28.4896C612.1 31.1131 612.351 34.2445 610.784 37.0811L609.874 36.7002ZM627.57 25.0572L627.8 26.1633C628.071 27.5205 628.387 29.0366 628.454 31.3442L627.436 31.4398C627.412 29.2402 627.089 27.693 626.819 26.3682L626.756 26.0699L619.946 27.4913L619.778 26.6835L627.57 25.0572ZM620.454 35.2703L620.286 34.4625L624.238 33.6377L623.413 29.6857L624.37 29.486L625.195 33.438L630.352 32.3616L630.521 33.1694L620.454 35.2703ZM635.124 23.3249L636.193 28.445L631.011 29.5266L629.942 24.4065L635.124 23.3249ZM631.804 28.544L635.072 27.8618L634.336 24.3324L631.067 25.0146L631.804 28.544ZM633.372 33.8193L632.643 30.3272L633.612 30.1248L634.173 32.8092L640.685 31.4501L640.853 32.2579L633.372 33.8193ZM638.968 29.8112L637.311 21.87L638.28 21.6677L639.937 29.6089L638.968 29.8112ZM647.018 23.6179L647.184 24.4133L644.947 24.8801L645.269 26.4211C646.291 26.1624 647.307 25.8725 648.242 25.5672L648.467 26.2724C646.156 27.0984 643.542 27.7153 641.466 28.1485L641.151 27.3843C642.119 27.1757 643.204 26.9364 644.309 26.6669L643.978 25.0824L641.815 25.5337L641.043 21.8303L646.324 20.728L646.493 21.5358L642.193 22.4332L642.631 24.5335L647.018 23.6179ZM644.031 31.7373L643.383 28.6305L644.352 28.4281L644.829 30.7148L651.391 29.3453L651.562 30.1655L644.031 31.7373ZM649.691 27.9104L647.966 19.6461L648.948 19.4412L650.673 27.7055L649.691 27.9104ZM659.066 17.3165L659.979 21.691L661.831 21.3045L662.002 22.1247L660.15 22.5112L661.377 28.3894L660.408 28.5917L658.097 17.5188L659.066 17.3165ZM652.733 27.3014L651.226 20.081L656.384 19.0046L656.552 19.8124L652.364 20.6865L653.531 26.2789C655.531 25.8551 656.923 25.4737 658.506 24.8256L658.807 25.6447C657.138 26.3172 655.703 26.6815 653.603 27.1198L652.733 27.3014Z"
        fill="white" />
      <path
        d="M674.419 21.3229C673.983 21.4075 673.535 21.1249 673.455 20.6811C673.352 20.2488 673.65 19.8106 674.085 19.7198C674.526 19.6277 674.962 19.9129 675.046 20.3492C675.144 20.789 674.859 21.2246 674.419 21.3229Z"
        fill="white" />
      <path
        d="M691.66 13.9638C691.382 13.1009 690.456 12.7625 689.381 12.9869C688.188 13.2359 687.541 14.0194 687.714 14.8782C687.917 15.8214 689.041 15.9564 689.759 15.9815L690.706 16.0433C691.721 16.0908 693.421 16.3132 693.773 17.9971C694.079 19.4635 693.135 20.8471 691.049 21.289C689.109 21.6874 687.701 20.9373 687.284 19.468L688.427 19.2294C688.73 20.2166 689.769 20.4992 690.836 20.27C692.08 20.0168 692.879 19.1823 692.674 18.2005C692.491 17.3243 691.588 17.1626 690.588 17.0925L689.42 17.0251C687.924 16.9094 686.891 16.3727 686.643 15.1535C686.319 13.6324 687.465 12.3493 689.211 11.9849C690.957 11.6205 692.425 12.3776 692.753 13.7355L691.66 13.9638ZM698.219 19.7665C696.381 20.1566 694.848 19.0241 694.411 16.9301C693.971 14.8236 694.925 13.1786 696.764 12.7947C698.597 12.4121 700.117 13.541 700.55 15.6488C700.993 17.7415 700.054 19.3902 698.219 19.7665ZM695.48 16.707C695.767 18.0541 696.649 19.1087 698.022 18.8221C699.383 18.538 699.763 17.2202 699.481 15.8718C699.201 14.5297 698.322 13.4552 696.961 13.7392C695.588 14.0258 695.206 15.3636 695.48 16.707ZM705.121 18.326C703.209 18.7316 701.736 17.5152 701.313 15.4895C700.885 13.439 701.809 11.7419 703.642 11.3593C705.077 11.0598 706.336 11.6854 706.769 12.9242L705.701 13.1473C705.417 12.5645 704.765 12.1106 703.864 12.2986C702.658 12.5502 702.064 13.7117 702.374 15.2292C702.706 16.7875 703.698 17.6246 704.922 17.3691C705.717 17.2031 706.237 16.6472 706.269 15.8689L707.337 15.6458C707.421 16.8863 706.62 18.0197 705.121 18.326ZM708.752 17.4257L707.343 10.6776L708.412 10.4545L709.82 17.2026L708.752 17.4257ZM706.751 8.8948C706.661 8.49842 706.937 8.11019 707.349 8.03081C707.757 7.939 708.165 8.18458 708.254 8.58096C708.33 8.97373 708.054 9.36196 707.644 9.44755C707.234 9.53314 706.826 9.28757 706.751 8.8948ZM710.482 15.0673C710.159 13.5201 711.452 12.8806 712.602 12.5498C713.031 12.4279 714.105 12.1388 714.409 12.0691L714.294 11.5223C714.116 10.6648 713.502 10.274 712.483 10.4867C711.632 10.6644 711.198 11.1635 711.156 11.7103L710.038 11.9438C709.948 10.8278 710.847 9.85551 712.338 9.54426C713.221 9.36011 714.934 9.27482 715.372 11.4012L716.3 15.8503L715.244 16.0708L715.052 15.1511L715.002 15.1615C714.873 15.6618 714.388 16.4115 713.215 16.6629C711.933 16.9238 710.757 16.3846 710.482 15.0673ZM711.561 14.894C711.717 15.6072 712.382 15.8444 713.201 15.667C714.408 15.4217 714.91 14.4738 714.733 13.6225L714.591 12.9452C714.278 13.03 713.233 13.3326 712.914 13.4186C711.957 13.6831 711.413 14.1532 711.561 14.894ZM716.888 6.33816L718.766 15.3357L717.697 15.5588L715.819 6.56122L716.888 6.33816ZM721.285 5.4205L722.627 5.14038L727.205 11.9143L727.317 11.891L728.803 3.85131L730.146 3.57119L732.023 12.5687L730.967 12.7892L729.548 5.99132L729.461 6.00948L728.084 13.3909L727.09 13.5984L722.875 7.38415L722.8 7.39971L724.219 14.1976L723.163 14.418L721.285 5.4205ZM736.419 11.794C734.469 12.2074 732.973 11.0671 732.541 8.99794C732.108 6.92254 733.031 5.22547 734.864 4.84289C736.281 4.54721 737.96 5.1046 738.475 7.60383L738.569 8.05122L733.672 9.07314C734.027 10.4906 735.023 11.0998 736.222 10.8495C737.03 10.6809 737.465 10.2204 737.627 9.75218L738.77 9.51356C738.667 10.605 737.812 11.5097 736.419 11.794ZM733.489 8.16463L737.298 7.36966C737.057 6.24627 736.174 5.55525 735.062 5.78739C733.893 6.0312 733.346 7.10516 733.489 8.16463ZM742.849 10.452C741.166 10.8097 739.697 9.70276 739.249 7.55901C738.803 5.42148 739.71 3.83161 741.406 3.47756C742.717 3.20393 743.294 3.9137 743.599 4.22611L743.673 4.21055L742.981 0.892397L744.062 0.666744L745.94 9.66428L744.896 9.88215L744.681 8.85067L744.569 8.87401C744.41 9.29612 744.137 10.1898 742.849 10.452ZM740.325 7.30851C740.625 8.74389 741.518 9.73111 742.798 9.46396C744.035 9.20588 744.501 8.01932 744.19 6.50186C743.872 5.00564 742.998 4.14399 741.743 4.40595C740.444 4.677 740.031 5.89798 740.325 7.30851ZM747.473 9.34421L746.065 2.59606L747.134 2.373L748.542 9.12116L747.473 9.34421ZM745.472 0.813309C745.383 0.416925 745.659 0.0286957 746.07 -0.0506831C746.479 -0.142489 746.887 0.103086 746.976 0.49947C747.052 0.892234 746.776 1.28046 746.366 1.36606C745.956 1.45165 745.548 1.20607 745.472 0.813309ZM749.204 6.98581C748.881 5.43858 750.174 4.79909 751.324 4.46829C751.753 4.34644 752.827 4.05735 753.13 3.98759L753.016 3.44078C752.837 2.58328 752.224 2.19252 751.205 2.40521C750.354 2.58288 749.92 3.08198 749.878 3.62885L748.76 3.86228C748.669 2.74634 749.569 1.77401 751.06 1.46277C751.942 1.27861 753.656 1.19333 754.093 3.31974L755.022 7.76879L753.965 7.98926L753.774 7.06962L753.724 7.08C753.595 7.58029 753.109 8.33005 751.936 8.58137C750.655 8.84231 749.479 8.30313 749.204 6.98581ZM750.283 6.81246C750.438 7.52575 751.104 7.76295 751.923 7.58555C753.13 7.34017 753.632 6.39232 753.455 5.54103L753.313 4.86373C753 4.94851 751.954 5.25106 751.635 5.33713C750.679 5.60158 750.135 6.07173 750.283 6.81246ZM759.431 6.84854L757.553 -2.14899L760.71 -2.8078C762.599 -3.20204 763.709 -2.32494 763.979 -1.00011C764.227 0.154357 763.645 0.81405 762.907 1.19494L762.925 1.28193C763.774 1.15656 764.917 1.72217 765.221 3.15004C765.497 4.49972 764.825 5.72287 762.7 6.1664L759.431 6.84854ZM760.342 5.62091L762.48 5.17479C763.89 4.8804 764.307 4.1449 764.138 3.36326C763.953 2.44854 763.052 1.82615 761.896 2.06736L759.696 2.52645L760.342 5.62091ZM759.494 1.5571L761.495 1.13951C762.472 0.942121 763.109 0.173659 762.913 -0.76462C762.75 -1.54755 762.092 -2.0587 760.917 -1.81359L758.879 -1.38822L759.494 1.5571ZM766.855 5.29906L765.447 -1.44909L766.478 -1.66437L766.694 -0.632885L766.768 -0.648447C766.868 -1.38254 767.475 -1.98269 768.269 -2.1549C768.432 -2.18241 768.707 -2.23325 768.834 -2.24676L769.06 -1.16557C768.975 -1.16735 768.677 -1.16362 768.398 -1.10526C767.428 -0.90295 766.848 -0.0814273 767.037 0.825783L767.924 5.076L766.855 5.29906ZM770.251 2.5931C769.928 1.04587 771.221 0.406376 772.371 0.0755745C772.8 -0.0462743 773.874 -0.335362 774.178 -0.405122L774.063 -0.951933C773.884 -1.80943 773.271 -2.20019 772.252 -1.98751C771.401 -1.80984 770.967 -1.31073 770.925 -0.763865L769.807 -0.53043C769.717 -1.64637 770.616 -2.6187 772.107 -2.92995C772.99 -3.1141 774.703 -3.19938 775.141 -1.07298L776.069 3.37608L775.013 3.59654L774.821 2.67691L774.771 2.68728C774.642 3.18757 774.157 3.93734 772.983 4.18866C771.702 4.4496 770.526 3.91042 770.251 2.5931ZM771.33 2.41975C771.486 3.13303 772.151 3.37023 772.97 3.19283C774.177 2.94746 774.679 1.99961 774.502 1.14832L774.36 0.471019C774.047 0.5558 773.002 0.858342 772.683 0.94442C771.726 1.20887 771.182 1.67901 771.33 2.41975ZM777.689 -1.18989L778.535 2.86148L777.466 3.08454L776.058 -3.66361L777.089 -3.87888L777.31 -2.82254L777.397 -2.8407C777.569 -3.59657 778.109 -4.18245 779.134 -4.39643C780.501 -4.68174 781.588 -4.03974 781.94 -2.32344L782.835 1.96406L781.766 2.18712L780.887 -2.02581C780.669 -3.06973 779.967 -3.57179 779.01 -3.37208C778.029 -3.16717 777.445 -2.35808 777.689 -1.18989ZM786.808 1.27752C785.125 1.63518 783.655 0.528279 783.208 -1.61547C782.762 -3.75301 783.669 -5.34288 785.365 -5.69692C786.676 -5.97056 787.252 -5.26079 787.557 -4.94837L787.632 -4.96394L786.939 -8.28209L788.021 -8.50774L789.898 0.489794L788.855 0.707666L788.639 -0.32382L788.527 -0.300476C788.369 0.12163 788.095 1.01528 786.808 1.27752ZM784.284 -1.86598C784.584 -0.430598 785.477 0.556627 786.757 0.289474C787.994 0.0313997 788.459 -1.15517 788.149 -2.67262C787.83 -4.16884 786.957 -5.0305 785.701 -4.76853C784.403 -4.49749 783.99 -3.2765 784.284 -1.86598ZM791.432 0.169729L790.024 -6.57842L791.092 -6.80148L792.501 -0.0533305L791.432 0.169729ZM789.431 -8.36118C789.342 -8.75756 789.617 -9.14579 790.029 -9.22517C790.438 -9.31697 790.846 -9.0714 790.935 -8.67502C791.01 -8.28225 790.735 -7.89402 790.325 -7.80843C789.914 -7.72284 789.507 -7.96841 789.431 -8.36118ZM794.108 -4.6167L794.954 -0.565329L793.885 -0.342269L792.477 -7.09042L793.508 -7.3057L793.729 -6.24936L793.816 -6.26751C793.989 -7.02338 794.528 -7.60927 795.553 -7.82325C796.92 -8.10856 798.007 -7.46655 798.359 -5.75025L799.254 -1.46275L798.185 -1.23969L797.306 -5.45263C797.088 -6.49654 796.387 -6.99861 795.43 -6.79889C794.448 -6.59399 793.865 -5.78489 794.108 -4.6167ZM803.942 0.347015C802.308 0.688088 801.053 0.204346 800.674 -1.01998L801.793 -1.25342C802.08 -0.593515 802.791 -0.385334 803.748 -0.58505C804.904 -0.826266 805.507 -1.47742 805.275 -2.58969L804.99 -3.95672L804.903 -3.93856C804.75 -3.51775 804.481 -2.66397 803.178 -2.38542C801.536 -2.04926 800.048 -3.02902 799.604 -5.15413C799.171 -7.22953 800.088 -8.76969 801.784 -9.12374C803.095 -9.39737 803.684 -8.6902 804.001 -8.38038L804.088 -8.39853L803.865 -9.4673L804.909 -9.68517L806.357 -2.75061C806.714 -1.00946 805.589 0.00334773 803.942 0.347015ZM800.693 -5.3425C800.985 -3.94441 801.847 -3.10631 803.127 -3.37346C804.364 -3.63154 804.862 -4.66276 804.558 -6.14915C804.25 -7.59566 803.376 -8.45731 802.121 -8.19535C800.822 -7.9243 800.409 -6.70332 800.693 -5.3425Z"
        fill="white" />
    </g>
    <rect x="20" y="20" width="200" height="20" rx="10" fill="#E1FF01" />
    <path
      d="M36.5664 25.3477C36.5664 26.9814 37.8105 28.4033 39.5879 28.9707L39.0137 29.8047C37.6533 29.333 36.5938 28.3965 36.0674 27.1729C35.5479 28.5811 34.4268 29.6475 32.9707 30.1738L32.4238 29.3125C34.2627 28.6836 35.5068 27.166 35.5137 25.3477V24.377H36.5664V25.3477ZM34.2422 31.7188V30.8574H41.9941V33.7559H35.3223V35.0957H42.4453V35.9707H34.2695V32.9355H40.9277V31.7188H34.2422ZM40.9277 30.3105V23.9531H41.9941V26.6191H43.8262V27.5215H41.9941V30.3105H40.9277ZM53.8668 23.9531V28.9707H55.7125V29.873H53.8668V36.1074H52.7867V23.9531H53.8668ZM44.2008 32.7441C46.0328 30.8643 46.7779 28.6016 46.9146 26.1816H44.5836V25.2793H47.9332C47.9195 28.1709 47.2701 31.0283 45.0621 33.3594L44.2008 32.7441ZM47.6871 33.5645C49.5875 31.418 50.1549 28.7178 50.2574 26.1816H48.316V25.2793H51.2691C51.2623 28.1641 50.8385 31.5205 48.5621 34.166L47.6871 33.5645ZM57.9328 32.1426C57.9465 30.3105 58.507 29.75 59.4504 29.1758C60.0178 28.834 60.4484 28.2871 60.4484 27.5215C60.4484 26.5918 59.7238 25.9971 58.8215 26.0039C58.0422 25.9971 57.2561 26.4619 57.1809 27.5898H55.9367C56.0051 25.9287 57.2561 24.9648 58.8215 24.9648C60.5373 24.9648 61.6516 26.0654 61.6516 27.5762C61.6516 28.6494 61.1457 29.3945 60.298 29.9141C59.4436 30.4336 59.1359 30.96 59.1086 32.1426V32.2109H57.9328V32.1426ZM57.6867 34.1934C57.673 33.7148 58.0832 33.3184 58.5617 33.3184C59.0471 33.3184 59.4436 33.7148 59.4367 34.1934C59.4436 34.6787 59.0471 35.0752 58.5617 35.082C58.0832 35.0752 57.673 34.6787 57.6867 34.1934ZM71.8563 23.9531V26.5918H73.6883V27.4941H71.8563V30.1465H70.7898V23.9531H71.8563ZM62.8738 29.5039V24.6504H68.493V29.5039H62.8738ZM63.9266 28.6426H67.4539V25.5254H63.9266V28.6426ZM64.1043 31.582V30.7207H71.8563V33.6875H65.1844V35.082H72.3074V35.9434H64.1316V32.8672H70.7898V31.582H64.1043ZM83.7289 23.9531V28.9707H85.5746V29.873H83.7289V36.1074H82.6488V23.9531H83.7289ZM74.0629 32.7441C75.8949 30.8643 76.64 28.6016 76.7768 26.1816H74.4457V25.2793H77.7953C77.7816 28.1709 77.1322 31.0283 74.9242 33.3594L74.0629 32.7441ZM77.5492 33.5645C79.4496 31.418 80.017 28.7178 80.1195 26.1816H78.1781V25.2793H81.1312C81.1244 28.1641 80.7006 31.5205 78.4242 34.166L77.5492 33.5645ZM87.7949 32.1426C87.8086 30.3105 88.3691 29.75 89.3125 29.1758C89.8799 28.834 90.3105 28.2871 90.3105 27.5215C90.3105 26.5918 89.5859 25.9971 88.6836 26.0039C87.9043 25.9971 87.1182 26.4619 87.043 27.5898H85.7988C85.8672 25.9287 87.1182 24.9648 88.6836 24.9648C90.3994 24.9648 91.5137 26.0654 91.5137 27.5762C91.5137 28.6494 91.0078 29.3945 90.1602 29.9141C89.3057 30.4336 88.998 30.96 88.9707 32.1426V32.2109H87.7949V32.1426ZM87.5488 34.1934C87.5352 33.7148 87.9453 33.3184 88.4238 33.3184C88.9092 33.3184 89.3057 33.7148 89.2988 34.1934C89.3057 34.6787 88.9092 35.0752 88.4238 35.082C87.9453 35.0752 87.5352 34.6787 87.5488 34.1934ZM104.786 23.9531V28.793H106.823V29.6953H104.786V36.1348H103.72V23.9531H104.786ZM95.8586 25.9766V25.0879H101.382V29.4355H96.9523V32.2793C99.2082 32.2861 100.787 32.1973 102.626 31.8555L102.736 32.7441C100.821 33.0928 99.2014 33.1816 96.8566 33.1953H95.8859V28.5469H100.316V25.9766H95.8586ZM117.151 23.9531V36.1348H116.071V23.9531H117.151ZM107.581 29.1348C107.588 26.5508 108.873 24.9033 110.684 24.8965C112.489 24.9033 113.795 26.5508 113.788 29.1348C113.795 31.7256 112.489 33.3662 110.684 33.3594C108.873 33.3662 107.588 31.7256 107.581 29.1348ZM108.62 29.1348C108.62 31.1104 109.468 32.4092 110.684 32.4023C111.908 32.4092 112.749 31.1104 112.749 29.1348C112.749 27.1592 111.908 25.8604 110.684 25.8535C109.468 25.8604 108.62 27.1592 108.62 29.1348ZM130.008 33.5918V34.4941H118.879V33.5918H130.008ZM120.192 31.1582V24.8281H121.272V27.0977H127.588V24.8281H128.641V31.1582H120.192ZM121.272 30.2969H127.588V27.959H121.272V30.2969ZM137.347 27.6855C137.354 29.627 138.345 31.623 140.013 32.5117L139.384 33.3184C138.174 32.6553 137.299 31.4043 136.855 29.9414C136.424 31.5 135.549 32.8535 134.339 33.5645L133.697 32.7715C135.338 31.8076 136.329 29.6953 136.336 27.6855V27.125H133.984V26.2363H136.336V24.4043H137.361V26.2363H139.685V27.125H137.347V27.6855ZM140.519 35.4922V24.2129H141.545V28.875H143.199V23.9531H144.238V36.1074H143.199V29.791H141.545V35.4922H140.519ZM152.077 24.8555V25.7305H147.333V27.2617H151.736V28.1367H147.333V29.7363C149.917 29.7432 151.366 29.6953 153.075 29.4082L153.185 30.2832C151.414 30.5703 149.924 30.6318 147.238 30.625H146.253V24.8555H152.077ZM147.429 33.8652C147.429 32.4775 148.967 31.6641 151.544 31.6777C154.073 31.6641 155.639 32.4775 155.632 33.8652C155.639 35.2803 154.073 36.0801 151.544 36.0801C148.967 36.0801 147.429 35.2803 147.429 33.8652ZM148.495 33.8652C148.495 34.7266 149.63 35.2324 151.544 35.2324C153.404 35.2324 154.572 34.7266 154.579 33.8652C154.572 33.0381 153.404 32.5254 151.544 32.5254C149.63 32.5254 148.495 33.0381 148.495 33.8652ZM154.511 31.5V23.9668H155.577V31.5H154.511ZM162.897 31.5957C165.392 31.5957 166.903 32.416 166.903 33.8379C166.903 35.2734 165.392 36.0938 162.897 36.1074C160.395 36.0938 158.871 35.2734 158.864 33.8379C158.871 32.416 160.395 31.5957 162.897 31.5957ZM157.811 30.3242V24.7188H158.864V26.5781H162.405V24.7188H163.471V30.3242H157.811ZM158.864 29.4492H162.405V27.4258H158.864V29.4492ZM159.944 33.8379C159.93 34.7129 161.065 35.2324 162.897 35.2324C164.736 35.2324 165.857 34.7129 165.864 33.8379C165.857 32.9697 164.736 32.457 162.897 32.4434C161.065 32.457 159.93 32.9697 159.944 33.8379ZM165.727 31.2676V23.9531H166.794V27.0156H168.626V27.9316H166.794V31.2676H165.727ZM181.174 30.0508C181.181 33.1816 179.335 35.1367 176.799 35.1367C174.256 35.1367 172.417 33.1816 172.424 30.0508C172.417 26.9199 174.256 24.9648 176.799 24.9648C179.335 24.9648 181.181 26.9199 181.174 30.0508ZM173.613 30.0508C173.62 32.6006 175.008 33.9814 176.799 33.9883C178.59 33.9814 179.978 32.6006 179.984 30.0508C179.978 27.4941 178.59 26.1133 176.799 26.1133C175.008 26.1133 173.62 27.4941 173.613 30.0508ZM182.629 35V25.1016H185.992C188.309 25.1016 189.369 26.4824 189.369 28.2461C189.369 30.0029 188.309 31.4043 186.005 31.4043H183.859V35H182.629ZM183.859 30.3105H185.951C187.53 30.3105 188.145 29.4219 188.152 28.2461C188.145 27.0635 187.53 26.1953 185.937 26.1953H183.859V30.3105ZM190.741 35V25.1016H196.743V26.1953H191.972V29.5039H196.429V30.584H191.972V33.9062H196.812V35H190.741ZM206.196 25.1016V35H205.02L199.661 27.2891H199.565V35H198.335V25.1016H199.524L204.884 32.8262H204.979V25.1016H206.196Z"
      fill="#1B1B1B" />
    <path
      d="M33.824 87.328C33.536 87.872 33.088 88.272 32.48 88.528C31.872 88.784 31.264 88.912 30.656 88.912C30.368 88.912 29.824 88.864 29.024 88.768C28.256 88.704 27.456 88.512 26.624 88.192C25.824 87.872 25.104 87.392 24.464 86.752C23.824 86.112 23.504 85.248 23.504 84.16C23.504 83.712 23.6 83.248 23.792 82.768C23.984 82.288 24.208 81.872 24.464 81.52L24.368 81.424L23.936 81.04C23.616 80.752 23.376 80.368 23.216 79.888C23.088 79.408 23.024 78.944 23.024 78.496C23.024 78.112 23.088 77.76 23.216 77.44C23.344 77.088 23.504 76.736 23.696 76.384C23.76 76.256 23.856 76.144 23.984 76.048C24.112 75.92 24.176 75.776 24.176 75.616C23.44 74.944 22.8 74.176 22.256 73.312C21.712 72.448 21.44 71.408 21.44 70.192C21.44 68.592 22 67.12 23.12 65.776C22.736 65.36 22.416 64.96 22.16 64.576C21.936 64.16 21.824 63.648 21.824 63.04C21.824 62.56 21.904 62.16 22.064 61.84C22.256 61.52 22.496 61.28 22.784 61.12C23.072 60.928 23.408 60.8 23.792 60.736C24.176 60.64 24.576 60.576 24.992 60.544L25.088 60.4C25.376 59.6 25.712 58.944 26.096 58.432C26.48 57.888 27.168 57.616 28.16 57.616C29.024 57.616 29.632 57.888 29.984 58.432C30.336 58.944 30.528 59.6 30.56 60.4C31.136 60.528 31.632 60.784 32.048 61.168C32.496 61.52 32.72 62.016 32.72 62.656C32.72 63.072 32.64 63.488 32.48 63.904C32.416 63.936 32.352 64 32.288 64.096C32.256 64.192 32.24 64.272 32.24 64.336C32.24 64.4 32.192 64.464 32.096 64.528C32 64.592 31.952 64.656 31.952 64.72V64.768C32.336 65.152 32.672 65.568 32.96 66.016C33.248 66.464 33.392 66.96 33.392 67.504C33.392 68.016 33.248 68.432 32.96 68.752C32.672 69.04 32.304 69.376 31.856 69.76L31.952 69.856C32.304 70.176 32.608 70.496 32.864 70.816C33.152 71.104 33.296 71.488 33.296 71.968C33.296 72.48 33.2 72.944 33.008 73.36C32.848 73.776 32.64 74.176 32.384 74.56L32.48 74.608C32.832 74.928 33.136 75.264 33.392 75.616C33.648 75.968 33.776 76.368 33.776 76.816C33.776 77.072 33.728 77.328 33.632 77.584C33.568 77.808 33.488 78.032 33.392 78.256C33.872 78.096 34.448 78.112 35.12 78.304C35.792 78.464 36.352 78.896 36.8 79.6C37.152 78.96 37.504 78.448 37.856 78.064C38.208 77.648 38.8 77.44 39.632 77.44C40.208 77.44 40.672 77.616 41.024 77.968C41.376 78.32 41.68 78.736 41.936 79.216H41.984C42.112 79.184 42.208 79.136 42.272 79.072C42.368 78.976 42.448 78.912 42.512 78.88C42.992 78.528 43.568 78.352 44.24 78.352C45.04 78.352 45.68 78.496 46.16 78.784C46.672 79.072 47.056 79.456 47.312 79.936C47.6 80.416 47.776 80.976 47.84 81.616C47.936 82.224 47.968 82.88 47.936 83.584C47.776 85.344 47.248 86.512 46.352 87.088C45.488 87.664 44.336 87.952 42.896 87.952C42.48 87.952 42.08 87.888 41.696 87.76C41.312 87.6 40.928 87.44 40.544 87.28H40.496C40.24 87.92 39.84 88.432 39.296 88.816C38.752 89.2 38.112 89.392 37.376 89.392C36.896 89.392 36.4 89.264 35.888 89.008C35.408 88.752 34.976 88.464 34.592 88.144C34.432 88.048 34.304 87.92 34.208 87.76C34.112 87.6 33.984 87.456 33.824 87.328ZM53.663 87.088C53.151 87.216 52.671 87.216 52.223 87.088C51.775 86.928 51.391 86.704 51.071 86.416C50.751 86.128 50.495 85.792 50.303 85.408C50.111 84.992 50.015 84.56 50.015 84.112C50.015 83.696 50.063 83.28 50.159 82.864C50.255 82.448 50.431 82.064 50.687 81.712L51.791 80.512C51.471 80.288 51.199 80.032 50.975 79.744C50.751 79.456 50.639 79.088 50.639 78.64C50.639 78.384 50.655 78.144 50.687 77.92C50.719 77.696 50.799 77.488 50.927 77.296C50.927 77.264 50.975 77.184 51.071 77.056C51.199 76.896 51.263 76.784 51.263 76.72L51.359 76.576V76.432C50.879 76.176 50.447 75.872 50.063 75.52C49.711 75.168 49.535 74.704 49.535 74.128C49.535 73.584 49.615 73.072 49.775 72.592C49.967 72.08 50.207 71.6 50.495 71.152C49.279 70.704 48.671 69.76 48.671 68.32C48.671 67.776 48.751 67.28 48.911 66.832C49.071 66.352 49.279 65.856 49.535 65.344C49.279 65.184 49.039 64.96 48.815 64.672C48.623 64.352 48.527 64.032 48.527 63.712C48.527 63.296 48.607 62.912 48.767 62.56C48.959 62.176 49.199 61.84 49.487 61.552C49.775 61.264 50.095 61.04 50.447 60.88C50.799 60.688 51.151 60.592 51.503 60.592C51.759 59.728 52.207 59.024 52.847 58.48C53.487 57.904 54.271 57.616 55.199 57.616C55.615 57.616 56.015 57.728 56.399 57.952C56.783 58.144 57.103 58.4 57.359 58.72C57.647 59.04 57.871 59.408 58.031 59.824C58.223 60.208 58.335 60.608 58.367 61.024C58.431 61.024 58.543 61.04 58.703 61.072C58.863 61.072 58.975 61.072 59.039 61.072C60.031 61.264 60.783 61.76 61.295 62.56C61.807 63.36 62.063 64.144 62.063 64.912C62.063 65.616 61.919 66.272 61.631 66.88C61.343 67.456 60.895 67.936 60.287 68.32C60.927 68.544 61.535 68.896 62.111 69.376C62.687 69.824 62.975 70.416 62.975 71.152C62.975 71.728 62.783 72.304 62.399 72.88C62.047 73.424 61.695 73.872 61.343 74.224C61.791 74.512 62.175 74.88 62.495 75.328C62.815 75.744 62.975 76.24 62.975 76.816C62.975 77.744 62.767 78.416 62.351 78.832C61.935 79.216 61.391 79.632 60.719 80.08C61.231 80.56 61.615 81.088 61.871 81.664C62.127 82.208 62.255 82.848 62.255 83.584C62.255 84.384 62.015 85.136 61.535 85.84C61.087 86.544 60.479 86.896 59.711 86.896C59.551 86.896 59.423 86.88 59.327 86.848C59.231 86.784 59.103 86.752 58.943 86.752C58.879 87.456 58.591 87.968 58.079 88.288C57.567 88.64 56.991 88.816 56.351 88.816C55.615 88.816 55.039 88.624 54.623 88.24C54.239 87.888 53.919 87.504 53.663 87.088ZM81.4392 85.552C81.1192 86.064 80.6552 86.512 80.0472 86.896C79.4392 87.248 78.7992 87.424 78.1272 87.424C77.2632 87.424 76.4632 87.264 75.7272 86.944C74.9912 86.592 74.4472 86 74.0952 85.168C73.6792 83.888 73.7272 82.624 74.2392 81.376C73.6952 81.312 73.1352 81.184 72.5592 80.992C72.0152 80.8 71.5192 80.544 71.0712 80.224C70.6232 79.872 70.2392 79.456 69.9192 78.976C69.6312 78.496 69.4872 77.936 69.4872 77.296C69.4872 76.944 69.5032 76.64 69.5352 76.384C69.5672 76.096 69.6632 75.824 69.8232 75.568C69.2792 75.536 68.7192 75.408 68.1432 75.184C67.5672 74.96 67.0552 74.672 66.6072 74.32C66.1592 73.936 65.7912 73.504 65.5032 73.024C65.2152 72.512 65.0712 71.952 65.0712 71.344C65.0712 70.64 65.2472 70 65.5992 69.424C65.9512 68.816 66.3352 68.24 66.7512 67.696C66.1432 67.248 65.6152 66.768 65.1672 66.256C64.7512 65.744 64.5432 65.056 64.5432 64.192C64.5432 63.808 64.6072 63.408 64.7352 62.992C64.8952 62.544 65.1032 62.128 65.3592 61.744C65.6472 61.36 65.9672 61.04 66.3192 60.784C66.7032 60.528 67.1192 60.384 67.5672 60.352C68.4952 60.288 69.3272 60.448 70.0632 60.832C70.4152 60.736 70.7192 60.656 70.9752 60.592C71.2312 60.496 71.5032 60.448 71.7912 60.448C73.0072 60.416 73.9992 60.784 74.7672 61.552C75.5672 62.32 75.9672 63.456 75.9672 64.96C75.9672 65.216 75.9352 65.456 75.8712 65.68C75.8392 65.872 75.7912 66.096 75.7272 66.352C75.6312 66.608 75.5832 66.816 75.5832 66.976C75.6472 67.04 75.7272 67.072 75.8232 67.072C75.8232 67.104 75.8552 67.12 75.9192 67.12C76.3672 67.344 76.8152 67.616 77.2632 67.936C77.7432 68.224 78.0632 68.624 78.2232 69.136C78.4152 69.616 78.5272 70.112 78.5592 70.624C78.5912 71.104 78.4792 71.568 78.2232 72.016C78.6712 72.272 79.1352 72.592 79.6152 72.976C80.1272 73.36 80.3832 73.808 80.3832 74.32C80.3832 74.512 80.3512 74.72 80.2872 74.944C80.2232 75.168 80.1592 75.36 80.0952 75.52C80.6392 75.68 81.0072 75.84 81.1992 76C81.3912 76.128 81.6152 76.32 81.8712 76.576L82.1592 76.048C82.4152 75.632 82.7512 75.344 83.1672 75.184C83.6152 75.024 84.0152 74.864 84.3672 74.704C84.2072 74.256 84.0632 73.792 83.9352 73.312C83.8392 72.8 83.7912 72.288 83.7912 71.776C83.7912 71.616 83.7912 71.488 83.7912 71.392C83.7912 71.264 83.8232 71.12 83.8872 70.96C84.0792 70.416 84.4313 70 84.9433 69.712C85.4552 69.392 85.9672 69.152 86.4792 68.992C86.2552 68.704 86.0632 68.32 85.9032 67.84C85.7752 67.36 85.7112 66.816 85.7112 66.208C85.7112 65.92 85.7272 65.632 85.7592 65.344C85.8232 65.024 85.9352 64.72 86.0952 64.432C86.2873 64.112 86.5433 63.808 86.8632 63.52C87.2153 63.232 87.6632 62.976 88.2072 62.752C88.0792 62.464 88.0152 62.128 88.0152 61.744C88.0152 61.264 88.1112 60.816 88.3032 60.4C88.4952 59.952 88.7513 59.584 89.0712 59.296C89.4232 58.976 89.8232 58.72 90.2712 58.528C90.7513 58.336 91.2313 58.24 91.7113 58.24C91.9352 58.24 92.1432 58.256 92.3353 58.288C92.5273 58.32 92.7032 58.4 92.8632 58.528C92.9593 58.624 93.0713 58.736 93.1993 58.864C93.3272 58.992 93.4392 59.088 93.5352 59.152C93.8232 58.896 94.1593 58.72 94.5433 58.624C94.9272 58.528 95.2472 58.48 95.5033 58.48C96.3032 58.48 96.9272 58.8 97.3752 59.44C97.8553 60.048 98.0953 60.736 98.0953 61.504C98.0953 61.856 98.0473 62.368 97.9513 63.04C98.3673 63.488 98.6873 63.952 98.9112 64.432C99.1353 64.88 99.2473 65.456 99.2473 66.16C99.2473 67.12 98.9913 67.888 98.4792 68.464C97.9672 69.008 97.2952 69.504 96.4632 69.952C96.5912 70.272 96.7032 70.608 96.7993 70.96C96.9273 71.312 96.9913 71.664 96.9913 72.016C96.9913 73.04 96.6393 73.904 95.9353 74.608C95.2632 75.28 94.3672 75.712 93.2473 75.904C93.4712 76.48 93.5832 77.072 93.5832 77.68C93.5832 78.32 93.4232 78.88 93.1032 79.36C92.7832 79.84 92.3833 80.256 91.9033 80.608C91.4232 80.928 90.8952 81.2 90.3193 81.424C89.7753 81.616 89.2793 81.76 88.8313 81.856C88.8952 82.144 88.9432 82.416 88.9752 82.672C89.0072 82.928 89.0233 83.168 89.0233 83.392C89.0233 83.84 88.9433 84.32 88.7833 84.832C88.6553 85.312 88.4473 85.776 88.1593 86.224C87.8713 86.64 87.5033 86.992 87.0553 87.28C86.6392 87.568 86.1272 87.712 85.5192 87.712C84.7192 87.712 83.9832 87.568 83.3112 87.28C82.6712 86.96 82.0472 86.384 81.4392 85.552ZM116.816 88.624C115.76 88.624 114.768 88.48 113.84 88.192C112.912 87.936 112.032 87.296 111.2 86.272H111.104C110.72 86.464 110.304 86.672 109.856 86.896C109.408 87.12 108.64 87.264 107.552 87.328C106.08 87.328 104.848 86.864 103.856 85.936C102.896 85.008 102.416 83.744 102.416 82.144C102.416 80.768 102.784 79.568 103.52 78.544V78.448C103.232 78.224 102.976 77.968 102.752 77.68C102.56 77.392 102.464 77.056 102.464 76.672C102.464 76.224 102.544 75.776 102.704 75.328C102.896 74.88 103.12 74.48 103.376 74.128C103.376 74.064 103.408 74 103.472 73.936C103.536 73.84 103.568 73.76 103.568 73.696L103.664 73.552V73.504L103.568 73.408C103.312 73.248 103.072 73.104 102.848 72.976C102.624 72.816 102.432 72.608 102.272 72.352L101.84 71.44C101.584 70.768 101.456 70.144 101.456 69.568C101.456 68.608 101.616 67.792 101.936 67.12C102.256 66.416 102.752 65.744 103.424 65.104L103.28 64.912C103.024 64.464 102.8 64.032 102.608 63.616C102.416 63.2 102.32 62.72 102.32 62.176C102.32 60.832 102.72 59.84 103.52 59.2C104.352 58.528 105.376 58.208 106.592 58.24C107.424 58.272 108.112 58.4 108.656 58.624C109.2 58.816 109.616 59.024 109.904 59.248H110C110.352 58.896 110.72 58.624 111.104 58.432C111.488 58.208 111.952 58.096 112.496 58.096C113.104 58.096 113.632 58.208 114.08 58.432C114.112 58.432 114.16 58.48 114.224 58.576C114.32 58.64 114.4 58.672 114.464 58.672L114.608 58.72C115.152 58.08 115.696 57.68 116.24 57.52C116.784 57.328 117.472 57.232 118.304 57.232C119.616 57.232 120.656 57.68 121.424 58.576C121.52 58.832 121.664 59.024 121.856 59.152C122.24 58.992 122.64 58.864 123.056 58.768C123.504 58.64 123.936 58.576 124.352 58.576C125.024 58.576 125.584 58.704 126.032 58.96C126.48 59.216 126.848 59.552 127.136 59.968C127.424 60.384 127.616 60.864 127.712 61.408C127.84 61.952 127.904 62.528 127.904 63.136C127.904 64.256 127.536 65.168 126.8 65.872C126.064 66.576 124.992 66.928 123.584 66.928C122.784 66.928 121.984 66.704 121.184 66.256C120.768 66.768 120.336 67.088 119.888 67.216C119.472 67.344 118.944 67.408 118.304 67.408C117.76 67.408 117.248 67.36 116.768 67.264C116.32 67.136 115.856 66.976 115.376 66.784C115.12 67.104 114.848 67.344 114.56 67.504C114.272 67.632 113.952 67.744 113.6 67.84C113.472 67.84 113.216 67.888 112.832 67.984C112.48 68.048 112.224 68.08 112.064 68.08C112.032 68.08 111.92 68.096 111.728 68.128C111.536 68.128 111.424 68.128 111.392 68.128C111.392 68.192 111.408 68.352 111.44 68.608C111.504 68.864 111.536 69.024 111.536 69.088V69.664C111.536 69.984 111.504 70.256 111.44 70.48C111.408 70.704 111.344 70.976 111.248 71.296C111.248 71.36 111.216 71.456 111.152 71.584C111.088 71.712 111.056 71.808 111.056 71.872V71.92C111.6 72.24 111.984 72.608 112.208 73.024C112.432 73.408 112.544 73.92 112.544 74.56C112.544 74.912 112.496 75.248 112.4 75.568C112.336 75.856 112.176 76.144 111.92 76.432C111.888 76.496 111.776 76.656 111.584 76.912C111.424 77.136 111.312 77.28 111.248 77.344C111.792 77.6 112.192 78 112.448 78.544C112.704 79.056 112.816 79.584 112.784 80.128C113.072 79.904 113.392 79.728 113.744 79.6C114.096 79.44 114.448 79.36 114.8 79.36C115.184 79.36 115.536 79.456 115.856 79.648C116.208 79.84 116.544 80.064 116.864 80.32H116.96C117.312 79.712 117.76 79.328 118.304 79.168C118.848 79.008 119.424 78.928 120.032 78.928C120.48 78.928 120.848 79.024 121.136 79.216C121.424 79.408 121.696 79.664 121.952 79.984L122.336 80.512L122.432 80.56C122.848 80.144 123.312 79.824 123.824 79.6C124.368 79.344 124.96 79.216 125.6 79.216C125.952 79.216 126.288 79.328 126.608 79.552C126.928 79.744 127.216 80 127.472 80.32C127.728 80.64 127.936 81.008 128.096 81.424C128.256 81.84 128.336 82.24 128.336 82.624C128.336 83.168 128.288 83.712 128.192 84.256C128.096 84.768 127.904 85.232 127.616 85.648C127.36 86.032 126.992 86.368 126.512 86.656C126.032 86.912 125.424 87.056 124.688 87.088C124.304 87.12 123.904 87.072 123.488 86.944C123.104 86.816 122.736 86.704 122.384 86.608L122.096 87.088C121.904 87.44 121.584 87.712 121.136 87.904C120.72 88.096 120.256 88.24 119.744 88.336C119.232 88.464 118.704 88.544 118.16 88.576C117.648 88.608 117.2 88.624 116.816 88.624ZM113.648 73.024C113.648 72.384 113.856 71.888 114.272 71.536C114.72 71.184 115.264 71.008 115.904 71.008C116.384 71.008 116.768 71.104 117.056 71.296C117.344 71.456 117.696 71.616 118.112 71.776C118.912 71.008 119.84 70.624 120.896 70.624C121.184 70.624 121.488 70.688 121.808 70.816C122.16 70.912 122.48 71.072 122.768 71.296C123.056 71.488 123.296 71.744 123.488 72.064C123.68 72.352 123.776 72.704 123.776 73.12C123.776 73.856 123.568 74.448 123.152 74.896C122.768 75.312 122.256 75.632 121.616 75.856C121.008 76.08 120.336 76.224 119.6 76.288C118.896 76.352 118.24 76.384 117.632 76.384C116.448 76.384 115.488 76.192 114.752 75.808C114.016 75.392 113.648 74.464 113.648 73.024Z"
      fill="#F5F5F5" />
  </g>
  <defs>
    <clipPath id="clip0_5823_30743">
      <rect width="700" height="160" rx="12" fill="white" />
    </clipPath>
    <clipPath id="clip1_5823_30743">
      <rect width="826.681" height="33.0722" fill="white"
        transform="translate(-17 146.895) rotate(-11.7888)" />
    </clipPath>
  </defs>
</svg>