<svg width="28" height="28" viewBox="0 0 28 28" fill="none" xmlns="http://www.w3.org/2000/svg">
  <circle cx="14" cy="14" r="14" fill="white" />
  <path
    d="M7.68312 16.869C7.19316 17.1518 7.02529 17.7783 7.30816 18.2683C7.59104 18.7583 8.21755 18.9261 8.70751 18.6433L7.68312 16.869ZM21.0134 11.192C21.1599 10.6455 20.8356 10.0838 20.2891 9.93735L11.3837 7.55116C10.8372 7.40474 10.2755 7.72904 10.1291 8.27552C9.98267 8.822 10.307 9.38371 10.8535 9.53013L18.7693 11.6512L16.6483 19.5671C16.5019 20.1135 16.8262 20.6753 17.3726 20.8217C17.9191 20.9681 18.4808 20.6438 18.6273 20.0973L21.0134 11.192ZM8.70751 18.6433L20.5361 11.814L19.5118 10.0397L7.68312 16.869L8.70751 18.6433Z"
    fill="#1B1B1B" />
</svg>