<svg xmlns="http://www.w3.org/2000/svg" width="24" height="24" viewBox="0 0 24 24" fill="none">
  <path
    d="M21 21.082H16.9922V14.332C16.9922 13.8008 16.75 13.3477 16.2656 12.9727C15.7812 12.5977 15.2734 12.4102 14.7422 12.4102C14.2109 12.4102 13.7891 12.5977 13.4766 12.9727C13.1641 13.3477 13.0078 13.8008 13.0078 14.332V21.082H9V9.08203H13.0078V11.0977C13.3359 10.5508 13.8594 10.1211 14.5781 9.80859C15.2969 9.49609 15.9375 9.33984 16.5 9.33984C17.75 9.33984 18.8125 9.78125 19.6875 10.6641C20.5625 11.5469 21 12.6055 21 13.8398V21.082ZM7.00781 21.082H3V9.08203H7.00781V21.082ZM4.99219 3.08203C5.55469 3.08203 6.03125 3.27734 6.42188 3.66797C6.8125 4.05859 7.00781 4.53516 7.00781 5.09766C7.00781 5.64453 6.8125 6.11328 6.42188 6.50391C6.03125 6.89453 5.55469 7.08984 4.99219 7.08984C4.44531 7.08984 3.97656 6.89453 3.58594 6.50391C3.19531 6.11328 3 5.64453 3 5.09766C3 4.53516 3.19531 4.05859 3.58594 3.66797C3.97656 3.27734 4.44531 3.08203 4.99219 3.08203Z"
    fill="#1B1B1B"
  />
</svg>