<svg width="19" height="17" viewBox="0 0 19 17" fill="none" xmlns="http://www.w3.org/2000/svg">
  <g id="Group 1640">
    <g id="Group 1635">
      <path id="Rectangle 98"
        d="M2.80385 0.48572L16.6847 1.17976C17.8569 1.23837 18.7339 2.27811 18.5941 3.44342L17.6642 11.1922C17.5421 12.2099 16.6788 12.9758 15.6537 12.9758H3.95351C2.94979 12.9758 2.09754 12.2405 1.95045 11.2476L0.699663 2.80487C0.512444 1.54114 1.52792 0.421924 2.80385 0.48572Z"
        fill="#1E8D79" stroke="#3B2D74" stroke-width="0.449984" stroke-linejoin="round" />
      <g id="Group 1641">
        <path id="Subtract"
          d="M10.5242 13.1064C10.4631 13.1326 10.4168 13.1843 10.3975 13.2479C10.3782 13.3114 10.388 13.3802 10.4241 13.4359L11.8781 15.6727C11.981 15.8907 12.139 16.1416 12.3383 16.3262C12.5399 16.5128 12.8274 16.6678 13.1549 16.5655C13.1615 16.5634 13.168 16.5611 13.1744 16.5584L13.7711 16.3096C13.9914 16.239 14.163 16.1268 14.2917 15.9454C14.4154 15.7712 14.487 15.5496 14.5448 15.2885C14.5448 15.2883 14.5449 15.288 14.545 15.2877L15.2196 12.3511C15.2334 12.2908 15.2218 12.2274 15.1875 12.1759L14.7375 11.5009C14.6773 11.4107 14.5614 11.3762 14.4617 11.4189L10.5242 13.1064Z"
          fill="#1E8D79" stroke="#3B2D74" stroke-width="0.449984" stroke-linejoin="round" />
        <g id="Subtract_2">
          <mask id="path-3-outside-1_5842_21423" maskUnits="userSpaceOnUse" x="8.99414" y="11.1672"
            width="6" height="6" fill="black">
            <rect fill="white" x="8.99414" y="11.1672" width="6" height="6" />
            <path fill-rule="evenodd" clip-rule="evenodd"
              d="M9.99414 12.3016L12.327 16.0342C12.4502 16.2313 12.6663 16.3511 12.8987 16.3511C13.208 16.3511 13.4777 16.1405 13.5527 15.8404L14.471 12.1672C14.2599 12.2539 14.029 12.3016 13.7877 12.3016H9.99414Z" />
          </mask>
          <path fill-rule="evenodd" clip-rule="evenodd"
            d="M9.99414 12.3016L12.327 16.0342C12.4502 16.2313 12.6663 16.3511 12.8987 16.3511C13.208 16.3511 13.4777 16.1405 13.5527 15.8404L14.471 12.1672C14.2599 12.2539 14.029 12.3016 13.7877 12.3016H9.99414Z"
            fill="#A03FDC" />
          <path
            d="M9.99414 12.3016V11.8516C9.83056 11.8516 9.67986 11.9404 9.60057 12.0835C9.52127 12.2265 9.52586 12.4014 9.61256 12.5401L9.99414 12.3016ZM12.327 16.0342L12.7086 15.7957L12.7086 15.7957L12.327 16.0342ZM13.5527 15.8404L13.1162 15.7313L13.1162 15.7313L13.5527 15.8404ZM14.471 12.1672L14.9076 12.2764C14.9487 12.1117 14.8937 11.9379 14.7654 11.8269C14.637 11.7159 14.4571 11.6865 14.3001 11.751L14.471 12.1672ZM9.61256 12.5401L11.9454 16.2727L12.7086 15.7957L10.3757 12.0631L9.61256 12.5401ZM11.9454 16.2727C12.1509 16.6014 12.5111 16.801 12.8987 16.801V15.9011C12.8214 15.9011 12.7496 15.8613 12.7086 15.7957L11.9454 16.2727ZM12.8987 16.801C13.4145 16.801 13.8642 16.45 13.9893 15.9496L13.1162 15.7313C13.0912 15.8311 13.0016 15.9011 12.8987 15.9011V16.801ZM13.9893 15.9496L14.9076 12.2764L14.0345 12.0581L13.1162 15.7313L13.9893 15.9496ZM14.3001 11.751C14.1422 11.8158 13.9693 11.8516 13.7877 11.8516V12.7516C14.0887 12.7516 14.3775 12.6921 14.6419 12.5835L14.3001 11.751ZM13.7877 11.8516H9.99414V12.7516H13.7877V11.8516Z"
            fill="#3B2D74" mask="url(#path-3-outside-1_5842_21423)" />
        </g>
        <path id="Vector 1892" d="M12.64 15.9007L10.7275 12.6382" stroke="#C666FF"
          stroke-width="0.449984" stroke-linecap="round" stroke-linejoin="round" />
      </g>
      <path id="Subtract_3"
        d="M16.8151 1.14171L16.8151 1.14159L16.8079 1.14128L2.84854 0.54422C1.55997 0.449872 0.51335 1.57053 0.69616 2.85019L1.95867 11.6877C2.01853 12.1068 2.34431 12.435 2.76059 12.5019C2.8593 12.5177 2.9605 12.5263 3.0633 12.5263H14.6904C15.7443 12.5263 16.6216 11.7181 16.7085 10.6685L17.781 2.43359L17.7813 2.43363L17.7822 2.42247C17.7906 2.31676 17.7908 2.21216 17.7832 2.10933C17.7451 1.59371 17.3296 1.1803 16.8151 1.14171Z"
        fill="#C666FF" stroke="#3B2D74" stroke-width="0.449984" stroke-linejoin="round" />
      <path id="Subtract_4" fill-rule="evenodd" clip-rule="evenodd"
        d="M2.2168 11.7976C2.30592 12.0482 2.52599 12.2351 2.79652 12.2786C2.88401 12.2926 2.97327 12.3002 3.06352 12.3002H14.6906C15.6291 12.3002 16.4101 11.5792 16.4849 10.6437L17.5581 2.40339C17.5657 2.30921 17.5658 2.21615 17.5591 2.12478C17.5356 1.80772 17.3293 1.53897 17.0464 1.42334C17.0793 1.50223 17.1001 1.5872 17.1067 1.67595C17.1135 1.76732 17.1133 1.86038 17.1058 1.95456L16.0326 10.1949C15.9577 11.1304 15.1767 11.8514 14.2383 11.8514H2.61118C2.52092 11.8514 2.43167 11.8438 2.34418 11.8297C2.30028 11.8227 2.2577 11.8119 2.2168 11.7976Z"
        fill="#A03FDC" />
      <path id="Subtract_5"
        d="M0.91889 2.81837C0.756237 1.6798 1.68851 0.682838 2.83542 0.768857L9.81685 1.06746C8.72859 6.03031 3.85227 7.24844 1.55014 7.23715L0.91889 2.81837Z"
        fill="#D186FF" />
      <path id="Subtract_6"
        d="M6.00039 1.18216L2.95891 1.05543C1.96107 0.978271 1.14997 1.87257 1.29149 2.8939L1.56609 4.87578"
        stroke="#EDA5FF" stroke-width="0.449984" stroke-linecap="round" stroke-linejoin="round" />
      <path id="Subtract_7" d="M1.29149 2.8939C1.14997 1.87257 1.96107 0.978271 2.95891 1.05543"
        stroke="#F3FCFF" stroke-width="0.449984" stroke-linecap="round" stroke-linejoin="round" />
    </g>
    <g id="Group 1636">
      <circle id="Ellipse 1164" cx="13.7652" cy="10.388" r="0.3375" fill="#A643E0" />
      <circle id="Ellipse 1167" cx="15.1129" cy="10.388" r="0.3375" fill="#A643E0" />
      <circle id="Ellipse 1168" cx="12.1905" cy="10.838" r="0.3375" fill="#A643E0" />
      <circle id="Ellipse 1169" cx="14.2154" cy="7.23789" r="0.3375" fill="#A643E0" />
      <circle id="Ellipse 1165" cx="15.2279" cy="9.37539" r="0.225" fill="#A643E0" />
      <circle id="Ellipse 1166" cx="13.6527" cy="9.15054" r="0.225" fill="#A643E0" />
      <circle id="Ellipse 1170" cx="15.0004" cy="8.25039" r="0.225" fill="#A643E0" />
      <circle id="Ellipse 1171" cx="12.7528" cy="9.60049" r="0.225" fill="#A643E0" />
      <circle id="Ellipse 1172" cx="10.953" cy="10.5004" r="0.225" fill="#A643E0" />
      <circle id="Ellipse 1173" cx="9.49043" cy="11.0617" r="0.1125" fill="#A643E0" />
      <circle id="Ellipse 1174" cx="10.3903" cy="11.0617" r="0.1125" fill="#A643E0" />
      <circle id="Ellipse 1175" cx="11.2902" cy="11.288" r="0.1125" fill="#A643E0" />
      <circle id="Ellipse 1177" cx="12.8654" cy="10.3879" r="0.1125" fill="#A643E0" />
      <circle id="Ellipse 1178" cx="13.3156" cy="11.288" r="0.1125" fill="#A643E0" />
      <circle id="Ellipse 1179" cx="14.4406" cy="11.0617" r="0.1125" fill="#A643E0" />
      <circle id="Ellipse 1180" cx="14.6652" cy="9.71309" r="0.1125" fill="#A643E0" />
      <circle id="Ellipse 1186" cx="15.5632" cy="8.58809" r="0.1125" fill="#A643E0" />
      <circle id="Ellipse 1187" cx="14.8879" cy="6.56294" r="0.1125" fill="#A643E0" />
      <circle id="Ellipse 1181" cx="14.4406" cy="8.81172" r="0.1125" fill="#A643E0" />
      <circle id="Ellipse 1182" cx="13.3156" cy="8.58809" r="0.1125" fill="#A643E0" />
      <circle id="Ellipse 1183" cx="13.9904" cy="8.13789" r="0.1125" fill="#A643E0" />
      <circle id="Ellipse 1184" cx="14.8879" cy="7.46309" r="0.1125" fill="#A643E0" />
      <circle id="Ellipse 1185" cx="13.9904" cy="6.11299" r="0.1125" fill="#A643E0" />
      <circle id="Ellipse 1176" cx="11.7429" cy="9.93794" r="0.1125" fill="#A643E0" />
    </g>
    <g id="Group 1637">
      <circle id="Ellipse 1161" cx="4.64991" cy="6.22583" r="1.35" fill="#E8A7FF" stroke="#3B2D74"
        stroke-width="0.449984" stroke-linejoin="round" />
      <path id="Subtract_8" fill-rule="evenodd" clip-rule="evenodd"
        d="M5.70585 5.83867C5.51902 5.63673 5.25175 5.5103 4.95495 5.5103C4.39012 5.5103 3.93223 5.96819 3.93223 6.53303C3.93223 6.82842 4.05746 7.09456 4.25772 7.28126C3.82952 7.12221 3.52441 6.70989 3.52441 6.22632C3.52441 5.605 4.0281 5.10132 4.64942 5.10132C5.13451 5.10132 5.54789 5.40834 5.70585 5.83867Z"
        fill="#9F3DD9" />
      <path id="Ellipse 1160" d="M5.37669 6.2986C5.25602 6.74894 4.80572 7.01957 4.37091 6.90306"
        stroke="#FFDDFC" stroke-width="0.449984" stroke-linecap="round" stroke-linejoin="round" />
    </g>
    <g id="Group 1638">
      <circle id="Ellipse 1161_2" cx="9.15117" cy="6.22466" r="1.79999" fill="#E8A7FF"
        stroke="#3B2D74" stroke-width="0.449984" stroke-linejoin="round" />
      <path id="Subtract_9" fill-rule="evenodd" clip-rule="evenodd"
        d="M10.6286 5.67542C10.3673 5.39639 9.9956 5.22202 9.58318 5.22202C8.79241 5.22202 8.15137 5.86307 8.15137 6.65384C8.15137 7.06906 8.32811 7.443 8.61047 7.70453C8.00747 7.48367 7.57715 6.90466 7.57715 6.22515C7.57715 5.3553 8.2823 4.65015 9.15215 4.65015C9.82864 4.65015 10.4055 5.07664 10.6286 5.67542Z"
        fill="#9F3DD9" />
      <path id="Ellipse 1160_2" d="M10.1648 6.32767C9.99584 6.95814 9.36541 7.33701 8.75668 7.1739"
        stroke="#FFDDFC" stroke-width="0.449984" stroke-linecap="round" stroke-linejoin="round" />
    </g>
    <g id="Group 1639">
      <circle id="Ellipse 1161_3" cx="13.4248" cy="6.44898" r="1.35" fill="#E8A7FF" stroke="#3B2D74"
        stroke-width="0.449984" stroke-linejoin="round" />
      <path id="Subtract_10" fill-rule="evenodd" clip-rule="evenodd"
        d="M14.4803 6.06084C14.2934 5.8589 14.0262 5.73247 13.7294 5.73247C13.1645 5.73247 12.7066 6.19036 12.7066 6.7552C12.7066 7.05059 12.8319 7.31673 13.0321 7.50343C12.6039 7.34437 12.2988 6.93206 12.2988 6.44849C12.2988 5.82717 12.8025 5.32349 13.4238 5.32349C13.9089 5.32349 14.3223 5.63051 14.4803 6.06084Z"
        fill="#9F3DD9" />
      <path id="Ellipse 1160_3" d="M14.1492 6.52175C14.0285 6.97209 13.5782 7.24271 13.1434 7.1262"
        stroke="#FFDDFC" stroke-width="0.449984" stroke-linecap="round" stroke-linejoin="round" />
    </g>
  </g>
</svg>