<svg xmlns="http://www.w3.org/2000/svg" width="24" height="24" viewBox="0 0 24 24" fill="none">
  <path
    d="M16.2969 12.125C16.2969 12 16.2695 11.8867 16.2148 11.7852C16.1602 11.6836 16.0781 11.6016 15.9688 11.5391L10.25 7.95312C10.125 7.875 10.0039 7.83594 9.88672 7.83594C9.76953 7.83594 9.64844 7.86719 9.52344 7.92969C9.39844 8.00781 9.30469 8.09766 9.24219 8.19922C9.17969 8.30078 9.14844 8.42188 9.14844 8.5625V15.7109C9.14844 15.8516 9.17969 15.9727 9.24219 16.0742C9.30469 16.1758 9.39844 16.2578 9.52344 16.3203C9.58594 16.3516 9.64453 16.375 9.69922 16.3906C9.75391 16.4062 9.8125 16.4141 9.875 16.4141C9.9375 16.4141 10 16.4062 10.0625 16.3906C10.125 16.375 10.1875 16.3438 10.25 16.2969L15.9688 12.7344C16.0781 12.6719 16.1602 12.5898 16.2148 12.4883C16.2695 12.3867 16.2969 12.2656 16.2969 12.125ZM22.0156 12.125C22.0156 12.4844 22.0117 12.8047 22.0039 13.0859C21.9961 13.3672 21.9922 13.6094 21.9922 13.8125C21.9922 14.0156 21.9844 14.2422 21.9688 14.4922C21.9531 14.7422 21.9297 15.0234 21.8984 15.3359C21.8672 15.6328 21.832 15.9219 21.793 16.2031C21.7539 16.4844 21.7031 16.7422 21.6406 16.9766C21.5938 17.2422 21.5039 17.4922 21.3711 17.7266C21.2383 17.9609 21.0781 18.1719 20.8906 18.3594C20.6875 18.5312 20.4688 18.6719 20.2344 18.7812C20 18.8906 19.7578 18.9609 19.5078 18.9922C18.6797 19.0859 17.6406 19.1562 16.3906 19.2031C15.1406 19.25 13.6797 19.2734 12.0078 19.2734C10.3359 19.2734 8.875 19.25 7.625 19.2031C6.375 19.1562 5.33594 19.0859 4.50781 18.9922C4.25781 18.9609 4.01562 18.8906 3.78125 18.7812C3.54688 18.6719 3.32812 18.5312 3.125 18.3594C2.92188 18.1719 2.75781 17.9609 2.63281 17.7266C2.50781 17.4922 2.41406 17.2422 2.35156 16.9766C2.30469 16.7422 2.26172 16.4844 2.22266 16.2031C2.18359 15.9219 2.14844 15.6328 2.11719 15.3359C2.08594 15.0234 2.0625 14.7422 2.04688 14.4922C2.03125 14.2422 2.02344 14.0156 2.02344 13.8125C2.02344 13.6094 2.01953 13.3672 2.01172 13.0859C2.00391 12.8047 2 12.4844 2 12.125C2 11.7656 2.00391 11.4492 2.01172 11.1758C2.01953 10.9023 2.02344 10.6641 2.02344 10.4609C2.02344 10.2578 2.03125 10.0312 2.04688 9.78125C2.0625 9.53125 2.08594 9.25 2.11719 8.9375C2.14844 8.625 2.18359 8.33203 2.22266 8.05859C2.26172 7.78516 2.3125 7.53125 2.375 7.29688C2.42188 7.01562 2.51172 6.76172 2.64453 6.53516C2.77734 6.30859 2.9375 6.10156 3.125 5.91406C3.32812 5.72656 3.54688 5.57812 3.78125 5.46875C4.01562 5.35938 4.25781 5.28906 4.50781 5.25781C5.33594 5.17969 6.375 5.11719 7.625 5.07031C8.875 5.02344 10.3359 5 12.0078 5C13.6797 5 15.1406 5.02344 16.3906 5.07031C17.6406 5.11719 18.6797 5.17969 19.5078 5.25781C19.7578 5.28906 20 5.35938 20.2344 5.46875C20.4688 5.57812 20.6875 5.72656 20.8906 5.91406C21.0938 6.10156 21.2578 6.30859 21.3828 6.53516C21.5078 6.76172 21.6016 7.01562 21.6641 7.29688C21.7109 7.53125 21.7539 7.78516 21.793 8.05859C21.832 8.33203 21.8672 8.625 21.8984 8.9375C21.9297 9.25 21.9531 9.53125 21.9688 9.78125C21.9844 10.0312 21.9922 10.2578 21.9922 10.4609C21.9922 10.6641 21.9961 10.9023 22.0039 11.1758C22.0117 11.4492 22.0156 11.7656 22.0156 12.125Z"
    fill="#1B1B1B" />
</svg>