<svg xmlns="http://www.w3.org/2000/svg" width="26" height="26" viewBox="0 0 29 28" fill="none">
  <path
    d="M18.5 15C23.4706 15 27.5 13.2091 27.5 11C27.5 8.79086 23.4706 7 18.5 7C13.5294 7 9.5 8.79086 9.5 11C9.5 13.2091 13.5294 15 18.5 15Z"
    stroke="currentColor" stroke-width="1.5" stroke-linecap="round" stroke-linejoin="round" />
  <path d="M9.5 11V23C9.5 25.2 13.5 27 18.5 27C23.5 27 27.5 25.2 27.5 23V11" stroke="currentColor"
    stroke-width="1.5" stroke-linecap="round" stroke-linejoin="round" />
  <path d="M27.5 17C27.5 19.2 23.5 21 18.5 21C13.5 21 9.5 19.2 9.5 17" stroke="currentColor"
    stroke-width="1.5" stroke-linecap="round" stroke-linejoin="round" />
  <path
    d="M18.3 3.01756C15.963 1.5753 13.2427 0.877785 10.5 1.01755C5.52 1.01755 1.5 2.81756 1.5 5.01756C1.5 6.19756 2.66 7.25756 4.5 8.01756"
    stroke="currentColor" stroke-width="1.5" stroke-linecap="round" stroke-linejoin="round" />
  <path d="M4.5 20.0176C2.66 19.2576 1.5 18.1976 1.5 17.0176V5.01758" stroke="currentColor"
    stroke-width="1.5" stroke-linecap="round" stroke-linejoin="round" />
  <path d="M4.5 14.0176C2.66 13.2576 1.5 12.1976 1.5 11.0176" stroke="currentColor"
    stroke-width="1.5"
    stroke-linecap="round" stroke-linejoin="round" />
</svg>