<svg xmlns="http://www.w3.org/2000/svg" width="26" height="26" viewBox="0 0 29 28" fill="none">
  <path
    d="M19 10C21.2544 10 23.4164 10.8955 25.0104 12.4896C26.6044 14.0837 27.5 16.2457 27.5 18.5C27.5054 20.1732 27.0108 21.8098 26.08 23.2L27.5 27L22.72 26.14C21.5704 26.7006 20.3092 26.9946 19.0303 27C17.7513 27.0054 16.4876 26.722 15.3334 26.1712C14.1791 25.6204 13.1641 24.816 12.3638 23.8184C11.5636 22.8208 10.9988 21.6554 10.7115 20.409C10.4243 19.1628 10.422 17.8677 10.7048 16.6204C10.9876 15.3731 11.5483 14.2057 12.3449 13.2052C13.1416 12.2047 14.1538 11.3969 15.3061 10.8419C16.4584 10.2869 17.7211 9.99916 19 10Z"
    stroke="currentColor" stroke-width="1.5" stroke-linecap="round" stroke-linejoin="round" />
  <path
    d="M20.22 5.02008C18.8732 3.30622 17.0254 2.05498 14.9341 1.44057C12.8427 0.826154 10.6118 0.87915 8.55192 1.59217C6.49208 2.3052 4.70584 3.64276 3.44186 5.41864C2.1779 7.1945 1.49912 9.32032 1.50005 11.5001C1.49385 13.5721 2.10671 15.5987 3.26004 17.3201L1.50005 22L5.74004 21.24"
    stroke="currentColor" stroke-width="1.5" stroke-linecap="round" stroke-linejoin="round" />
</svg>