<svg xmlns="http://www.w3.org/2000/svg" width="21" height="20" viewBox="0 0 21 20" fill="none">
  <path
    d="M13.7141 7.14282C15.3244 7.14282 16.8687 7.7825 18.0073 8.92111C19.1458 10.0597 19.7855 11.604 19.7855 13.2143C19.7894 14.4094 19.4361 15.5784 18.7713 16.5714L19.7855 19.2857L16.3713 18.6714C15.5501 19.0718 14.6493 19.2818 13.7357 19.2857C12.8222 19.2895 11.9196 19.0871 11.0951 18.6937C10.2706 18.3003 9.54558 17.7257 8.97398 17.0131C8.40238 16.3005 7.99895 15.4681 7.79378 14.5778C7.58861 13.6877 7.58695 12.7626 7.78897 11.8717C7.99098 10.9808 8.39144 10.1469 8.9605 9.43225C9.52956 8.7176 10.2526 8.14058 11.0756 7.74418C11.8987 7.34778 12.8006 7.14222 13.7141 7.14282Z"
    stroke="black" stroke-width="1.5" stroke-linecap="round" stroke-linejoin="round" />
  <path
    d="M14.5853 3.58567C13.6233 2.36148 12.3035 1.46774 10.8096 1.02887C9.31578 0.590005 7.72227 0.62786 6.25095 1.13716C4.77964 1.64647 3.50375 2.60187 2.60091 3.87035C1.69808 5.13882 1.21324 6.65727 1.2139 8.21424C1.20947 9.69424 1.64723 11.1418 2.47104 12.3714L1.2139 15.7142L4.24247 15.1713"
    stroke="black" stroke-width="1.5" stroke-linecap="round" stroke-linejoin="round" />
</svg>