<svg xmlns="http://www.w3.org/2000/svg" width="26" height="26" viewBox="0 0 29 28" fill="none">
  <path
    d="M14.5 16C17.2614 16 19.5 13.7614 19.5 11C19.5 8.23858 17.2614 6 14.5 6C11.7386 6 9.5 8.23858 9.5 11C9.5 13.7614 11.7386 16 14.5 16Z"
    stroke="currentColor" stroke-width="1.5" stroke-linecap="round" stroke-linejoin="round" />
  <path
    d="M5.95996 23.7998C6.85244 22.3348 8.10678 21.124 9.60238 20.284C11.098 19.4437 12.7845 19.0024 14.5 19.0024C16.2154 19.0024 17.9019 19.4437 19.3975 20.284C20.8932 21.124 22.1474 22.3348 23.04 23.7998"
    stroke="currentColor" stroke-width="1.5" stroke-linecap="round" stroke-linejoin="round" />
  <path
    d="M14.5 27C21.6798 27 27.5 21.1798 27.5 14C27.5 6.8203 21.6798 1 14.5 1C7.3203 1 1.5 6.8203 1.5 14C1.5 21.1798 7.3203 27 14.5 27Z"
    stroke="currentColor" stroke-width="1.5" stroke-linecap="round" stroke-linejoin="round" />
</svg>