<svg xmlns="http://www.w3.org/2000/svg" width="26" height="26" viewBox="0 0 29 26" fill="none">
  <path
    d="M2.5922 10.6279H7.29476V23.1482H2.5922C2.32908 23.1482 2.07673 23.0438 1.89068 22.8576C1.70462 22.6716 1.6001 22.4192 1.6001 22.1562V11.62C1.6001 11.3569 1.70462 11.1046 1.89068 10.9185C2.07673 10.7325 2.32908 10.6279 2.5922 10.6279Z"
    stroke="currentColor" stroke-width="1.5" stroke-linecap="round" stroke-linejoin="round" />
  <path
    d="M7.29468 10.6272L12.3345 2.5713C12.5299 2.2529 12.8043 1.9905 13.1312 1.80968C13.458 1.62886 13.8262 1.5358 14.1997 1.53952C14.4939 1.5289 14.7872 1.57736 15.0623 1.68204C15.3375 1.78672 15.5888 1.94548 15.8015 2.14896C16.0143 2.35244 16.184 2.59648 16.3008 2.8667C16.4176 3.1369 16.4791 3.42778 16.4815 3.72214V9.49616H25.1922C25.514 9.5066 25.83 9.58504 26.1194 9.72636C26.4088 9.86766 26.665 10.0686 26.8712 10.316C27.0774 10.5634 27.2288 10.8516 27.3156 11.1617C27.4024 11.4719 27.4226 11.7968 27.3748 12.1153L25.7874 22.3538C25.7198 22.901 25.4544 23.4046 25.0416 23.77C24.6288 24.1354 24.0966 24.3374 23.5452 24.338H10.5289C9.9093 24.3404 9.29772 24.1978 8.74314 23.9212L7.31452 23.207"
    stroke="currentColor" stroke-width="1.5" stroke-linecap="round" stroke-linejoin="round" />
  <path d="M7.29468 10.6274V23.1478" stroke="currentColor" stroke-width="1.5" stroke-linecap="round"
    stroke-linejoin="round" />
</svg>