<svg xmlns="http://www.w3.org/2000/svg" width="21" height="18" viewBox="0 0 21 18" fill="none">
  <path
    d="M1.99478 7.30566H5.35375V16.2487H1.99478C1.80683 16.2487 1.62659 16.1742 1.49369 16.0412C1.36079 15.9083 1.28613 15.728 1.28613 15.5402V8.01431C1.28613 7.82636 1.36079 7.64612 1.49369 7.51322C1.62659 7.38034 1.80683 7.30566 1.99478 7.30566Z"
    stroke="black" stroke-width="1.5" stroke-linecap="round" stroke-linejoin="round" />
  <path
    d="M5.35352 7.30518L8.95342 1.551C9.09293 1.32357 9.28897 1.13614 9.52244 1.00698C9.75592 0.877827 10.0189 0.811355 10.2857 0.814012C10.4958 0.806427 10.7053 0.841041 10.9018 0.915812C11.0984 0.990584 11.2779 1.10398 11.4298 1.24933C11.5818 1.39467 11.7031 1.56898 11.7865 1.762C11.8699 1.955 11.9138 2.16277 11.9155 2.37303V6.49733H18.1375C18.3673 6.50478 18.593 6.56081 18.7997 6.66176C19.0065 6.76268 19.1895 6.90621 19.3367 7.08293C19.484 7.25964 19.5922 7.46551 19.6542 7.68703C19.7162 7.90854 19.7306 8.14067 19.6965 8.36814L18.5626 15.6814C18.5143 16.0722 18.3247 16.4319 18.0299 16.6929C17.735 16.9539 17.3549 17.0982 16.961 17.0986H7.66369C7.2211 17.1004 6.78426 16.9985 6.38813 16.8009L5.36769 16.2908"
    stroke="black" stroke-width="1.5" stroke-linecap="round" stroke-linejoin="round" />
  <path d="M5.35352 7.30542V16.2485" stroke="black" stroke-width="1.5" stroke-linecap="round"
    stroke-linejoin="round" />
</svg>