<svg width="551" height="254" viewBox="0 0 551 254" fill="none" xmlns="http://www.w3.org/2000/svg">
<path d="M6.0625 105.125V92.125L45.1875 31.5H65.4375V91.75H77.3125V105.125H65.4375V122H49.9375V105.125H6.0625ZM22.6875 91.75H50.1875V50H49.1875L22.6875 91.125V91.75Z" fill="black"/>
<circle cx="275.5" cy="77" r="76" fill="#E1FF01"/>
<path d="M257.012 13.3076H266.201V22.5419H257.012L257.012 31.7307H238.634V22.4964H257.012L257.012 13.3076Z" fill="#272727"/>
<path d="M266.201 13.3076H293.768V22.5419H266.201V13.3076Z" fill="#272727"/>
<path d="M293.768 22.4964V31.7307H312.146V40.9198H321.335V31.6856H312.146V22.4964H293.768Z" fill="#272727"/>
<path d="M238.634 31.6856H229.445V40.8744H220.256L220.256 59.2523H211.067V96.0537H220.256L220.256 114.431H229.445L229.445 123.62H238.634V114.386H229.445L229.445 96.0079H220.256V59.2975H229.445V40.9198H238.634V31.6856Z" fill="#272727"/>
<path d="M321.335 40.8744H330.524V59.2523H339.713V96.0537H330.524V114.431H321.335V96.0079H330.524V59.2975H321.335V40.8744Z" fill="#272727"/>
<path d="M257.012 59.2523H266.201V68.4866H257.012V59.2523Z" fill="#272727"/>
<path d="M293.768 59.2523H284.579V68.4866H293.768V59.2523Z" fill="#272727"/>
<path d="M257.012 86.8194H266.201V96.0537H257.012V86.8194Z" fill="#272727"/>
<path d="M293.768 86.8194H284.579V96.0079H266.201V105.242H284.579V96.0537H293.768V86.8194Z" fill="#272727"/>
<path d="M312.146 114.386H321.335V123.62H312.146V132.809H293.768V123.575H312.146V114.386Z" fill="#272727"/>
<path d="M238.634 123.575V132.809H257.012L257.012 141.998H266.201V132.764H257.012L257.012 123.575H238.634Z" fill="#272727"/>
<path d="M266.201 132.764H293.768V141.998H266.201V132.764Z" fill="#272727"/>
<path d="M474.062 105.125V92.125L513.188 31.5H533.438V91.75H545.312V105.125H533.438V122H517.938V105.125H474.062ZM490.688 91.75H518.188V50H517.188L490.688 91.125V91.75Z" fill="black"/>
<path d="M62.6406 185.125V253H50.4531L20.6406 209.875H20.0781V253H6.01562V185.125H18.3906L48.0156 228.25H48.6719V185.125H62.6406ZM136.234 219.062C136.234 241.234 122.5 253.938 104.547 253.938C86.4531 253.938 72.7656 241.141 72.7656 219.062C72.7656 196.891 86.4531 184.188 104.547 184.188C122.5 184.188 136.234 196.891 136.234 219.062ZM87.1094 219.062C87.1094 233.547 94 241.422 104.547 241.469C115 241.422 121.938 233.547 121.891 219.062C121.938 204.531 115 196.703 104.547 196.656C94 196.703 87.1094 204.531 87.1094 219.062ZM140.734 196.75V185.125H196.328V196.75H175.516V253H161.547V196.75H140.734ZM227.172 253V185.125H271.891V196.75H241.234V213.25H268.984V224.875H241.234V253H227.172ZM343.328 219.062C343.328 241.234 329.594 253.938 311.641 253.938C293.547 253.938 279.859 241.141 279.859 219.062C279.859 196.891 293.547 184.188 311.641 184.188C329.594 184.188 343.328 196.891 343.328 219.062ZM294.203 219.062C294.203 233.547 301.094 241.422 311.641 241.469C322.094 241.422 329.031 233.547 328.984 219.062C329.031 204.531 322.094 196.703 311.641 196.656C301.094 196.703 294.203 204.531 294.203 219.062ZM395.453 185.125H409.609V229.188C409.609 244.047 398.312 253.984 381.484 253.938C364.609 253.984 353.453 244.047 353.453 229.188V185.125H367.516V228.062C367.562 235.891 373.094 241.516 381.484 241.562C389.969 241.516 395.5 235.891 395.453 228.062V185.125ZM477.672 185.125V253H465.484L435.672 209.875H435.109V253H421.047V185.125H433.422L463.047 228.25H463.703V185.125H477.672ZM513.016 253H489.109V185.125H513.297C533.734 185.125 546.25 197.828 546.203 218.969C546.25 240.203 533.734 253 513.016 253ZM503.172 240.906H512.453C525.391 240.906 532.141 234.203 532.141 218.969C532.141 203.875 525.391 197.219 512.547 197.219H503.172V240.906Z" fill="black"/>
</svg>
