<svg width="700" height="120" viewBox="0 0 700 120" fill="none" xmlns="http://www.w3.org/2000/svg">
<rect width="700" height="120" rx="12" fill="#FF6000"/>
<path d="M279.945 26.1016C279.934 28.7734 281.656 31.1992 284.938 32.1719L283.602 34.1875C281.258 33.4492 279.605 31.9609 278.68 30.0508C277.742 32.2305 275.973 33.918 273.453 34.75L272.164 32.6875C275.574 31.6094 277.332 29.0195 277.344 26.1016V24.6484H279.945V26.1016ZM275.258 37.7266V35.7109H289.109V41.1719H277.859V42.8359H289.766V44.8984H275.281V39.2734H286.508V37.7266H275.258ZM286.508 34.8438V23.8984H289.109V28.2109H292.062V30.3438H289.109V34.8438H286.508ZM310.039 23.8984V32.3594H312.969V34.5156H310.039V45.0859H307.414V23.8984H310.039ZM292.836 39.0156C295.812 35.8516 296.797 32.4883 297.008 28.2578H293.68V26.125H299.492C299.48 31.6797 298.695 36.3555 294.875 40.4922L292.836 39.0156ZM298.836 40.4219C301.859 36.8125 302.715 32.8516 302.879 28.2578H300.195V26.125H305.352C305.34 31.8203 304.742 37.2578 300.922 41.8516L298.836 40.4219ZM336.289 23.8984V28.1641H339.242V30.3203H336.289V34.5391H333.688V23.8984H336.289ZM320.305 33.6484V24.9766H330.336V33.6484H320.305ZM322.438 37.4688V35.4531H336.289V41.0078H325.039V42.7656H336.945V44.8281H322.461V39.1094H333.688V37.4688H322.438ZM322.859 31.5859H327.781V27.0391H322.859V31.5859ZM357.219 23.8984V32.3594H360.148V34.5156H357.219V45.0859H354.594V23.8984H357.219ZM340.016 39.0156C342.992 35.8516 343.977 32.4883 344.188 28.2578H340.859V26.125H346.672C346.66 31.6797 345.875 36.3555 342.055 40.4922L340.016 39.0156ZM346.016 40.4219C349.039 36.8125 349.895 32.8516 350.059 28.2578H347.375V26.125H352.531C352.52 31.8203 351.922 37.2578 348.102 41.8516L346.016 40.4219ZM364.648 37.7969C364.672 34.8086 365.516 33.8945 366.992 32.9922C367.988 32.3477 368.762 31.5625 368.75 30.3906C368.762 29.0781 367.73 28.2344 366.453 28.2344C365.293 28.2344 364.168 28.9844 364.086 30.5547H361.156C361.238 27.4023 363.582 25.7969 366.477 25.7969C369.641 25.7969 371.809 27.5547 371.82 30.3438C371.809 32.2539 370.859 33.4961 369.336 34.3984C367.977 35.2305 367.414 36.0391 367.391 37.7969V38.0078H364.648V37.7969ZM364.273 41.3594C364.262 40.375 365.094 39.5664 366.102 39.5547C367.074 39.5664 367.906 40.375 367.906 41.3594C367.906 42.3672 367.074 43.1875 366.102 43.1875C365.094 43.1875 364.262 42.3672 364.273 41.3594ZM380.07 43V26.0312H383.117V40.4219H390.617V43H380.07ZM396.102 26.0312V43H393.055V26.0312H396.102ZM401.516 26.0312L405.922 39.4141H406.109L410.539 26.0312H413.891L407.891 43H404.141L398.164 26.0312H401.516ZM415.906 43V26.0312H426.945V28.5859H418.953V33.2266H426.359V35.7812H418.953V40.4219H426.992V43H415.906Z" fill="white"/>
<path d="M169.817 64.9531V71.2559H168.764V64.9531H169.817ZM159.878 70.2852C161.71 69.6494 163.008 68.0225 163.008 66.2383V65.3086H164.102V66.2383C164.088 67.9541 165.401 69.4717 167.206 70.0664L166.672 70.9004C165.244 70.415 164.116 69.3965 163.569 68.084C163.022 69.499 161.88 70.6133 160.438 71.1328L159.878 70.2852ZM161.928 72.7324V71.8711H169.831V74.7832H163.008V76.0957H170.268V76.9707H161.956V73.9492H168.764V72.7324H161.928ZM175.865 68.2207C175.859 70.4424 177.369 72.6709 179.16 73.4844L178.504 74.332C177.116 73.6621 175.92 72.2197 175.339 70.4902C174.779 72.3223 173.582 73.8604 172.16 74.5781L171.477 73.6758C173.288 72.8486 174.785 70.5244 174.799 68.2207V66.0059H175.865V68.2207ZM180.487 77.1348V64.9531H181.567V77.1348H180.487ZM192.797 64.9531V68.6582H194.629V69.5605H192.797V73.8535H191.717V64.9531H192.797ZM183.308 71.584C186.227 70.6748 188.121 68.9453 188.346 66.7988H183.814V65.8965H189.515C189.515 69.0273 187.28 71.3516 183.773 72.4453L183.308 71.584ZM185.181 76.8477V72.9512H186.248V75.9453H193.357V76.8477H185.181ZM200.581 65.7461C203.118 65.7529 205.025 67.0791 205.025 69.082C205.025 71.1055 203.118 72.4316 200.581 72.418C198.045 72.4316 196.138 71.1055 196.138 69.082C196.138 67.0791 198.045 65.7529 200.581 65.7461ZM195.044 75.4941V74.5918H206.173V75.4941H195.044ZM197.163 69.082C197.15 70.5586 198.62 71.543 200.581 71.543C202.53 71.543 203.986 70.5586 203.986 69.082C203.986 67.626 202.53 66.6143 200.581 66.6211C198.62 66.6143 197.15 67.626 197.163 69.082ZM217.923 74.7012V75.6035H206.794V74.7012H211.798V72.4043H208.188V68.6582H215.462V66.7441H208.161V65.8555H216.515V69.5332H209.255V71.5156H216.802V72.4043H212.851V74.7012H217.923ZM232.098 64.9531V77.1074H231.072V70.7363H229.281V76.4785H228.297V65.2266H229.281V69.8477H231.072V64.9531H232.098ZM222.158 74.0996V66.4434H226.711V67.332H223.225V73.1836C224.9 73.1768 226.055 73.1152 227.408 72.8418L227.504 73.7441C226.041 74.0449 224.804 74.0928 222.938 74.0996H222.158ZM242.89 64.9531V70.1348H244.832V71.0371H242.89V77.1074H241.81V64.9531H242.89ZM233.306 73.8672C234.298 73.8672 235.453 73.8604 236.656 73.8262V72.4863C235.241 72.3223 234.318 71.4883 234.332 70.2852C234.318 68.9111 235.48 68.0225 237.203 68.0293C238.898 68.0225 240.081 68.9111 240.088 70.2852C240.081 71.4951 239.144 72.3223 237.736 72.4863V73.7852C238.864 73.7305 240.012 73.6348 241.072 73.4844L241.14 74.3047C238.488 74.7559 235.617 74.7832 233.484 74.7832L233.306 73.8672ZM233.525 67.3184V66.4434H236.656V64.9805H237.736V66.4434H240.853V67.3184H233.525ZM235.33 70.2852C235.337 71.126 236.075 71.6797 237.203 71.666C238.31 71.6797 239.055 71.126 239.062 70.2852C239.055 69.4375 238.31 68.8633 237.203 68.8633C236.075 68.8633 235.337 69.4375 235.33 70.2852ZM254.613 64.9531V69.9023H256.581V70.8047H254.613V77.1074H253.546V64.9531H254.613ZM245.288 73.9492C248.426 72.3906 250.135 70.0459 250.381 67.168H245.849V66.2656H251.468C251.461 69.7041 249.848 72.8418 245.89 74.7969L245.288 73.9492ZM264.495 67.5645C264.502 69.2051 265.794 70.6816 267.612 71.2559L267.065 72.1172C265.65 71.6318 264.529 70.6338 263.975 69.3555C263.449 70.7363 262.307 71.8301 260.858 72.3633L260.297 71.502C262.123 70.8662 263.408 69.2871 263.415 67.5645V66.8535H260.571V65.9785H267.297V66.8535H264.495V67.5645ZM262.307 76.8477V73.0332H263.374V75.9453H270.538V76.8477H262.307ZM269.088 73.8809V64.9668H270.155V73.8809H269.088ZM282.192 64.9531V72.6504H281.166V69.1641H279.539V72.2129H278.528V65.1992H279.539V68.2754H281.166V64.9531H282.192ZM271.801 67.2773V66.416H274.399V65.0488H275.465V66.416H278.035V67.2773H271.801ZM272.334 70.0117C272.327 68.7402 273.401 67.9268 274.932 67.9336C276.47 67.9268 277.536 68.7402 277.543 70.0117C277.536 71.2627 276.47 72.0762 274.932 72.0762C273.401 72.0762 272.327 71.2627 272.334 70.0117ZM273.291 70.0117C273.291 70.7568 273.961 71.2695 274.932 71.2695C275.903 71.2695 276.572 70.7568 276.572 70.0117C276.572 69.2393 275.903 68.7266 274.932 68.7266C273.961 68.7266 273.291 69.2393 273.291 70.0117ZM274.098 74.9883C274.084 73.6211 275.609 72.8555 278.172 72.8555C280.729 72.8555 282.253 73.6211 282.26 74.9883C282.253 76.3213 280.729 77.0801 278.172 77.0801C275.609 77.0801 274.084 76.3213 274.098 74.9883ZM275.164 74.9883C275.151 75.7744 276.279 76.2529 278.172 76.2461C280.059 76.2529 281.18 75.7744 281.194 74.9883C281.18 74.1543 280.059 73.6895 278.172 73.7031C276.279 73.6895 275.151 74.1543 275.164 74.9883ZM290.865 70.2031V71.0918H288.199V73.4844C289.388 73.4365 290.585 73.3545 291.713 73.2246L291.795 74.0312C289.101 74.4209 286.162 74.4756 283.838 74.4688L283.687 73.5664C284.747 73.5664 285.923 73.5596 287.133 73.5254V71.0918H284.617V66.1152H290.81V66.9902H285.67V70.2031H290.865ZM292.519 77.1348V64.9531H293.586V77.1348H292.519ZM305.117 66.1836V67.4004C305.103 68.8906 305.103 70.5586 304.665 73.0059L303.572 72.8828C304.03 70.5586 304.03 68.8564 304.037 67.4004V67.0723H296.544V66.1836H305.117ZM295.369 75.3848V74.4961H299.716V70.1484H300.769V74.4961H306.443V75.3848H295.369ZM314.397 73.1152C314.39 74.1885 314.971 75.3301 316.127 75.9863C317.289 75.2686 317.904 74.0518 317.897 73.1152V72.4453H318.95V73.1152C318.943 74.3662 319.866 75.6104 321.424 76.1504L320.891 76.9434C319.674 76.5127 318.827 75.665 318.403 74.6465C318.027 75.6309 317.282 76.5674 316.161 77.0391C314.978 76.5879 314.226 75.6992 313.864 74.6807C313.426 75.6582 312.592 76.5059 311.43 76.9434L310.883 76.1504C312.421 75.5762 313.344 74.2773 313.358 73.1152V72.4453H314.397V73.1152ZM310.569 68.5215C310.562 66.8262 311.909 65.6709 313.754 65.6777C315.6 65.6709 316.933 66.8262 316.94 68.5215C316.933 70.1895 315.6 71.3379 313.754 71.3379C311.909 71.3379 310.562 70.1895 310.569 68.5215ZM311.622 68.5215C311.608 69.6494 312.504 70.4424 313.754 70.4492C314.992 70.4424 315.887 69.6494 315.887 68.5215C315.887 67.3867 314.992 66.5801 313.754 66.5938C312.504 66.5801 311.608 67.3867 311.622 68.5215ZM319.251 71.9121V64.9668H320.317V71.9121H319.251ZM325.299 65.8965C326.953 65.9033 328.15 67.3252 328.314 69.6016H331.041V64.9531H332.108V77.1348H331.041V70.4902H328.327C328.211 72.876 326.994 74.3662 325.299 74.3594C323.501 74.3662 322.243 72.7256 322.25 70.1348C322.243 67.5508 323.501 65.9033 325.299 65.8965ZM323.276 70.1348C323.282 72.1104 324.103 73.4092 325.299 73.4023C326.488 73.4092 327.322 72.1104 327.322 70.1348C327.322 68.1592 326.488 66.8604 325.299 66.8535C324.103 66.8604 323.282 68.1592 323.276 70.1348ZM344.91 74.6465V75.5488H333.781V74.6465H336.543V71.3721C335.504 70.832 334.875 69.957 334.875 68.8496C334.875 66.9697 336.721 65.7324 339.318 65.7188C341.916 65.7324 343.762 66.9697 343.762 68.8496C343.762 69.9365 343.153 70.7979 342.148 71.3379V74.6465H344.91ZM335.914 68.8496C335.907 70.21 337.322 71.1191 339.318 71.1191C341.294 71.1191 342.722 70.21 342.722 68.8496C342.722 67.4893 341.294 66.5938 339.318 66.6074C337.322 66.5938 335.907 67.4893 335.914 68.8496ZM337.596 74.6465H341.068V71.7549C340.542 71.8916 339.954 71.9668 339.318 71.9668C338.696 71.9668 338.115 71.8984 337.596 71.7617V74.6465ZM347.499 66.1016L347.404 73.2109H346.255L346.16 66.1016H347.499ZM345.954 75.1934C345.941 74.7148 346.351 74.3184 346.829 74.3184C347.315 74.3184 347.711 74.7148 347.704 75.1934C347.711 75.6787 347.315 76.0752 346.829 76.082C346.351 76.0752 345.941 75.6787 345.954 75.1934ZM363.069 74.6328V75.5215H351.94V74.6328H356.917V71.6523H357.969V74.6328H363.069ZM352.378 70.9004C354.504 70.5381 356.869 68.7607 356.876 66.7168V65.7871H357.997V66.7168C358.004 68.7471 360.403 70.5381 362.522 70.9004L362.044 71.7891C360.191 71.4062 358.236 70.1553 357.45 68.4053C356.65 70.1484 354.715 71.4062 352.856 71.7891L352.378 70.9004ZM373.711 64.9531V77.1348H372.631V64.9531H373.711ZM364.401 74.1953V65.9922H365.467V69.2051H369.09V65.9922H370.143V74.1953H364.401ZM365.467 73.293H369.09V70.0664H365.467V73.293ZM379.103 65.7461C380.97 65.7598 382.337 66.9082 382.344 68.6035C382.337 70.1279 381.229 71.208 379.65 71.4131V73.4775C380.785 73.4297 381.927 73.3477 382.986 73.2109L383.055 74.0176C380.477 74.4551 377.606 74.4824 375.467 74.4688L375.289 73.5664C376.266 73.5596 377.394 73.5527 378.57 73.5186V71.4131C376.957 71.2217 375.856 70.1348 375.863 68.6035C375.856 66.9082 377.203 65.7598 379.103 65.7461ZM376.916 68.6035C376.902 69.7451 377.825 70.5381 379.103 70.5312C380.361 70.5381 381.277 69.7451 381.291 68.6035C381.277 67.4619 380.361 66.6826 379.103 66.6758C377.825 66.6826 376.902 67.4619 376.916 68.6035ZM383.765 77.1074V64.9531H384.832V69.9707H386.814V70.9004H384.832V77.1074H383.765ZM397.093 65.8965V66.5391C397.086 67.3389 397.086 68.5488 396.778 70.1348L395.698 70.0527C395.992 68.6035 396.02 67.5713 396.033 66.7988H391.036V65.8965H397.093ZM390.284 71.2695C391.07 71.2695 391.959 71.2627 392.896 71.2354V68.5898H393.962V71.2012C395.309 71.1465 396.703 71.0508 397.968 70.873L398.036 71.666C395.486 72.1035 392.561 72.1514 390.394 72.1582L390.284 71.2695ZM392.157 76.8477V73.2793H393.237V75.9453H400.278V76.8477H392.157ZM398.788 74.0996V64.9531H399.882V68.918H401.659V69.834H399.882V74.0996H398.788ZM407.872 65.8281V69.3691H403.688V71.3789C405.91 71.3789 407.133 71.3242 408.61 71.0645L408.719 71.9531C407.133 72.2266 405.862 72.2676 403.483 72.2676H402.608V68.5215H406.778V66.7031H402.581V65.8281H407.872ZM404.276 76.7793V73.252H405.356V75.8906H412.547V76.7793H404.276ZM408.692 70.627V69.7383H411.098V67.8926H408.692V67.0176H411.098V64.9668H412.178V73.9082H411.098V70.627H408.692ZM420.92 68.9453V69.8203H418.459V71.5156C419.594 71.4678 420.729 71.3857 421.781 71.2695L421.863 72.0625C419.245 72.4248 416.354 72.5 414.07 72.5L413.906 71.625C414.973 71.6182 416.169 71.6045 417.393 71.5635V69.8203H415.014V65.7461H420.824V66.6348H416.094V68.9453H420.92ZM415.985 76.8477V73.4297H417.051V75.9453H424.27V76.8477H415.985ZM422.793 74.0586V64.9668H423.873V74.0586H422.793ZM439.156 64.9531V77.1074H438.13V70.7363H436.339V76.4785H435.355V65.2266H436.339V69.8477H438.13V64.9531H439.156ZM429.216 74.0996V66.4434H433.769V67.332H430.283V73.1836C431.957 73.1768 433.113 73.1152 434.466 72.8418L434.562 73.7441C433.099 74.0449 431.862 74.0928 429.996 74.0996H429.216ZM449.948 64.9531V70.1348H451.89V71.0371H449.948V77.1074H448.868V64.9531H449.948ZM440.364 73.8672C441.355 73.8672 442.511 73.8604 443.714 73.8262V72.4863C442.299 72.3223 441.376 71.4883 441.39 70.2852C441.376 68.9111 442.538 68.0225 444.261 68.0293C445.956 68.0225 447.139 68.9111 447.146 70.2852C447.139 71.4951 446.202 72.3223 444.794 72.4863V73.7852C445.922 73.7305 447.07 73.6348 448.13 73.4844L448.198 74.3047C445.546 74.7559 442.675 74.7832 440.542 74.7832L440.364 73.8672ZM440.583 67.3184V66.4434H443.714V64.9805H444.794V66.4434H447.911V67.3184H440.583ZM442.388 70.2852C442.395 71.126 443.133 71.6797 444.261 71.666C445.368 71.6797 446.113 71.126 446.12 70.2852C446.113 69.4375 445.368 68.8633 444.261 68.8633C443.133 68.8633 442.395 69.4375 442.388 70.2852ZM463.379 70.5996V71.4473H452.251V70.5996H463.379ZM453.59 73.2246V72.418H461.985V75.002H454.684V76.1641H462.381V76.9434H453.604V74.2637H460.919V73.2246H453.59ZM453.659 66.1016V65.3223H461.944V67.8379H454.766V68.9043H462.163V69.6836H453.7V67.0996H460.864V66.1016H453.659ZM478.553 69.8066V70.709H476.584V77.1074H475.517V64.9531H476.584V69.8066H478.553ZM467.683 74.0176V66.1562H468.75V73.1152C470.527 73.1152 472.339 72.9785 474.342 72.5547L474.478 73.4707C472.38 73.8945 470.493 74.0176 468.654 74.0176H467.683ZM488.744 69.0547V69.9434H480.363V65.582H481.429V69.0547H488.744ZM478.927 72.6777V71.7754H490.056V72.6777H484.97V77.1074H483.904V72.6777H478.927ZM493.944 65.8965C495.599 65.9033 496.795 67.3252 496.959 69.6016H499.687V64.9531H500.753V77.1348H499.687V70.4902H496.973C496.856 72.876 495.64 74.3662 493.944 74.3594C492.146 74.3662 490.889 72.7256 490.896 70.1348C490.889 67.5508 492.146 65.9033 493.944 65.8965ZM491.921 70.1348C491.928 72.1104 492.748 73.4092 493.944 73.4023C495.134 73.4092 495.968 72.1104 495.968 70.1348C495.968 68.1592 495.134 66.8604 493.944 66.8535C492.748 66.8604 491.928 68.1592 491.921 70.1348ZM511.729 66.6758C511.722 68.3027 513.889 69.6836 516.008 69.998L515.612 70.8457C513.718 70.5244 511.865 69.5127 511.127 68.0498C510.389 69.5127 508.536 70.5244 506.67 70.8457L506.246 69.998C508.359 69.6836 510.519 68.3027 510.526 66.6758V66.5938H506.629V65.7188H515.612V66.5938H511.729V66.6758ZM505.59 72.7734V71.8848H516.664V72.7734H511.633V77.1074H510.58V72.7734H505.59ZM520.949 68.4121C520.949 70.3467 521.892 72.4316 523.506 73.3887L522.89 74.2227C521.715 73.5117 520.874 72.2129 520.45 70.7295C520.006 72.3496 519.103 73.7441 517.887 74.4824L517.203 73.6758C518.885 72.6914 519.91 70.5381 519.91 68.4531V66.1016H520.949V68.4121ZM522.166 70.2305V69.3145H524.23V65.2129H525.242V76.4922H524.23V70.2305H522.166ZM526.719 77.1074V64.9531H527.758V77.1074H526.719ZM540.218 74.6465V75.5488H529.089V74.6465H531.851V71.3721C530.812 70.832 530.183 69.957 530.183 68.8496C530.183 66.9697 532.029 65.7324 534.626 65.7188C537.224 65.7324 539.07 66.9697 539.07 68.8496C539.07 69.9365 538.461 70.7979 537.456 71.3379V74.6465H540.218ZM531.222 68.8496C531.215 70.21 532.63 71.1191 534.626 71.1191C536.602 71.1191 538.031 70.21 538.031 68.8496C538.031 67.4893 536.602 66.5938 534.626 66.6074C532.63 66.5938 531.215 67.4893 531.222 68.8496ZM532.904 74.6465H536.376V71.7549C535.85 71.8916 535.262 71.9668 534.626 71.9668C534.004 71.9668 533.423 71.8984 532.904 71.7617V74.6465Z" fill="#1B1B1B"/>
<g clip-path="url(#clip0_4842_18463)">
<path d="M610.954 61.6097L628.019 63.9786L621.531 79.989C621.297 80.566 621.461 81.2288 621.937 81.6301C622.202 81.8529 622.529 81.9663 622.857 81.9663C623.12 81.9663 623.384 81.8944 623.618 81.7463L638.208 72.5573L643.496 89.0051C643.686 89.5987 644.236 89.9999 644.858 89.9999C645.48 89.9999 646.029 89.5973 646.221 89.0051L651.509 72.5573L666.099 81.7463C666.332 81.893 666.596 81.9663 666.86 81.9663C667.188 81.9663 667.516 81.8529 667.78 81.6301C668.256 81.2288 668.42 80.566 668.185 79.989L661.697 63.9786L678.761 61.6097C679.376 61.5239 679.867 61.0507 679.975 60.4364C680.083 59.822 679.783 59.2091 679.234 58.9171L664.006 50.8365L675.56 38.0181C675.977 37.556 676.048 36.8766 675.738 36.3369C675.479 35.8859 675.003 35.6188 674.498 35.6188C674.399 35.6188 674.298 35.6299 674.197 35.6506L657.354 39.28L657.991 22.009C658.015 21.3864 657.634 20.8191 657.051 20.606C656.891 20.5479 656.725 20.5188 656.561 20.5188C656.128 20.5188 655.707 20.7167 655.432 21.0737L644.854 34.7153L634.282 21.075C634.005 20.718 633.586 20.5202 633.153 20.5202C632.989 20.5202 632.823 20.5479 632.663 20.6074C632.08 20.8204 631.699 21.3877 631.723 22.0104L632.361 39.2814L615.518 35.652C615.417 35.6299 615.317 35.6202 615.217 35.6202C614.714 35.6202 614.237 35.8873 613.977 36.3383C613.667 36.878 613.739 37.5573 614.155 38.0195L625.709 50.8378L610.481 58.9185C609.932 59.2104 609.633 59.8234 609.74 60.4378C609.848 61.0521 610.339 61.5253 610.954 61.6111V61.6097Z" fill="black"/>
<path d="M636.946 64.1379C641.242 64.1379 644.724 59.0221 644.724 52.7115C644.724 46.4009 641.242 41.2852 636.946 41.2852C632.651 41.2852 629.169 46.4009 629.169 52.7115C629.169 59.0221 632.651 64.1379 636.946 64.1379Z" fill="white"/>
<path d="M636.946 64.6471C632.378 64.6471 628.661 59.2923 628.661 52.7115C628.661 46.1308 632.378 40.7773 636.946 40.7773C641.514 40.7773 645.231 46.1322 645.231 52.7115C645.231 59.2909 641.514 64.6471 636.946 64.6471ZM636.946 41.7943C632.937 41.7943 629.675 46.6912 629.675 52.7115C629.675 58.7319 632.937 63.6287 636.946 63.6287C640.956 63.6287 644.216 58.7319 644.216 52.7115C644.216 46.6912 640.954 41.7943 636.946 41.7943Z" fill="black"/>
<path d="M636.814 52.7711L640.757 50.6859C640.27 47.4758 638.69 45.1235 636.814 45.1235C634.551 45.1235 632.715 48.5467 632.715 52.7711C632.715 56.9954 634.551 60.4186 636.814 60.4186C638.771 60.4186 640.407 57.8589 640.814 54.437L636.814 52.7711Z" fill="black"/>
<path d="M650.062 64.1379C654.357 64.1379 657.839 59.0221 657.839 52.7115C657.839 46.4009 654.357 41.2852 650.062 41.2852C645.766 41.2852 642.284 46.4009 642.284 52.7115C642.284 59.0221 645.766 64.1379 650.062 64.1379Z" fill="white"/>
<path d="M650.061 64.6471C645.493 64.6471 641.776 59.2923 641.776 52.7115C641.776 46.1308 645.493 40.7773 650.061 40.7773C654.629 40.7773 658.346 46.1322 658.346 52.7115C658.346 59.2909 654.629 64.6471 650.061 64.6471ZM650.061 41.7943C646.052 41.7943 642.79 46.6912 642.79 52.7115C642.79 58.7319 646.052 63.6287 650.061 63.6287C654.071 63.6287 657.331 58.7319 657.331 52.7115C657.331 46.6912 654.069 41.7943 650.061 41.7943Z" fill="black"/>
<path d="M650.11 52.7711L654.053 50.6859C653.566 47.4758 651.986 45.1235 650.11 45.1235C647.846 45.1235 646.011 48.5467 646.011 52.7711C646.011 56.9954 647.846 60.4186 650.11 60.4186C652.067 60.4186 653.703 57.8589 654.11 54.437L650.11 52.7711Z" fill="black"/>
</g>
<g clip-path="url(#clip1_4842_18463)">
<path d="M61.0779 36.0632C59.1136 36.0233 56.5044 35.4603 55.0387 33.8958C53.5333 32.2867 52.7345 29.644 52.4026 27.4177C52.2057 26.1099 52.0659 24.7495 52.1326 23.4226C52.1628 22.8613 52.2803 22.1739 52.1358 21.6205C52.031 21.2122 51.7721 21.0575 51.4657 21.0081H51.4545C50.6923 20.9937 49.8379 20.8917 49.8252 22.0288C49.8173 22.5742 49.8808 23.1133 49.876 23.6555C49.8681 25.0302 49.8014 26.4161 49.541 27.7637C49.1186 29.9614 48.377 32.5482 46.7826 34.0681C45.2533 35.5273 42.7188 36.0552 40.7513 36.0648C39.6111 36.068 37.1623 35.7809 37.002 37.5017C37.1671 39.2767 39.7635 38.9147 40.926 38.9386C42.8919 38.9785 45.4995 39.5415 46.9652 41.106C48.4691 42.7136 49.2647 45.3594 49.6013 47.5858C49.7998 48.8935 49.9332 50.2523 49.8713 51.5808C49.8427 52.139 49.722 52.8295 49.8665 53.3781C49.9697 53.7864 50.2302 53.9427 50.5367 53.9937H50.5494C51.3116 54.0065 52.1644 54.1102 52.1771 52.9731C52.185 52.4308 52.1247 51.8902 52.1294 51.3479C52.1374 49.9748 52.2009 48.5873 52.4613 47.2397C52.8853 45.0404 53.6285 42.4568 55.2213 40.9322C56.7522 39.4761 59.2851 38.9466 61.2542 38.9402C62.3944 38.9355 64.84 39.2209 65.002 37.5049C64.84 35.7267 62.242 36.0903 61.0795 36.0664L61.0779 36.0632Z" fill="#FFD739"/>
</g>
<defs>
<clipPath id="clip0_4842_18463">
<rect width="71" height="70" fill="white" transform="translate(609 20)"/>
</clipPath>
<clipPath id="clip1_4842_18463">
<rect width="28" height="33" fill="white" transform="translate(37 21)"/>
</clipPath>
</defs>
</svg>
